<?xml version="1.0" encoding="utf-8" standalone="no"?>
<!DOCTYPE svg PUBLIC "-//W3C//DTD SVG 1.1//EN"
  "http://www.w3.org/Graphics/SVG/1.1/DTD/svg11.dtd">
<svg xmlns:xlink="http://www.w3.org/1999/xlink" width="339.672813pt" height="218.928688pt" viewBox="0 0 339.672813 218.928688" xmlns="http://www.w3.org/2000/svg" version="1.1">
 <metadata>
  <rdf:RDF xmlns:dc="http://purl.org/dc/elements/1.1/" xmlns:cc="http://creativecommons.org/ns#" xmlns:rdf="http://www.w3.org/1999/02/22-rdf-syntax-ns#">
   <cc:Work>
    <dc:type rdf:resource="http://purl.org/dc/dcmitype/StillImage"/>
    <dc:date>2026-06-14T01:17:08.218057</dc:date>
    <dc:format>image/svg+xml</dc:format>
    <dc:creator>
     <cc:Agent>
      <dc:title>Matplotlib v3.10.8, https://matplotlib.org/</dc:title>
     </cc:Agent>
    </dc:creator>
   </cc:Work>
  </rdf:RDF>
 </metadata>
 <defs>
  <style type="text/css">*{stroke-linejoin: round; stroke-linecap: butt}</style>
 </defs>
 <g id="figure_1">
  <g id="patch_1">
   <path d="M 0 218.928688
L 339.672813 218.928688
L 339.672813 -0
L 0 -0
z
" style="fill: #ffffff"/>
  </g>
  <g id="axes_1">
   <g id="patch_2">
    <path d="M 42.312813 185.634938
L 332.472813 185.634938
L 332.472813 19.314938
L 42.312813 19.314938
z
" style="fill: #ffffff"/>
   </g>
   <g id="matplotlib.axis_1">
    <g id="xtick_1">
     <g id="line2d_1">
      <defs>
       <path id="m0542641c90" d="M 0 0
L 0 3.5
" style="stroke: #000000; stroke-width: 0.8"/>
      </defs>
      <g>
       <use xlink:href="#m0542641c90" x="86.018586" y="185.634938" style="stroke: #000000; stroke-width: 0.8"/>
      </g>
     </g>
     <g id="text_1">
      <!-- $\mathdefault{10^{0}}$ -->
      <g transform="translate(80.523586 199.853688)">
       <text>
        <tspan x="0" y="-0.599563" style="font-size: 7px; font-family: 'Arial'">1</tspan>
        <tspan x="3.893066" y="-0.599563" style="font-size: 7px; font-family: 'Arial'">0</tspan>
        <tspan x="7.908097" y="-5.478125" style="font-size: 4.9px; font-family: 'Arial'">0</tspan>
       </text>
      </g>
     </g>
    </g>
    <g id="xtick_2">
     <g id="line2d_2">
      <g>
       <use xlink:href="#m0542641c90" x="187.392812" y="185.634938" style="stroke: #000000; stroke-width: 0.8"/>
      </g>
     </g>
     <g id="text_2">
      <!-- $\mathdefault{10^{1}}$ -->
      <g transform="translate(181.897812 199.853688)">
       <text>
        <tspan x="0" y="-0.599563" style="font-size: 7px; font-family: 'Arial'">1</tspan>
        <tspan x="3.893066" y="-0.599563" style="font-size: 7px; font-family: 'Arial'">0</tspan>
        <tspan x="7.908097" y="-5.478125" style="font-size: 4.9px; font-family: 'Arial'">1</tspan>
       </text>
      </g>
     </g>
    </g>
    <g id="xtick_3">
     <g id="line2d_3">
      <g>
       <use xlink:href="#m0542641c90" x="288.767039" y="185.634938" style="stroke: #000000; stroke-width: 0.8"/>
      </g>
     </g>
     <g id="text_3">
      <!-- $\mathdefault{10^{2}}$ -->
      <g transform="translate(283.272039 199.853688)">
       <text>
        <tspan x="0" y="-0.599563" style="font-size: 7px; font-family: 'Arial'">1</tspan>
        <tspan x="3.893066" y="-0.599563" style="font-size: 7px; font-family: 'Arial'">0</tspan>
        <tspan x="7.908097" y="-5.478125" style="font-size: 4.9px; font-family: 'Arial'">2</tspan>
       </text>
      </g>
     </g>
    </g>
    <g id="xtick_4">
     <g id="line2d_4">
      <defs>
       <path id="mdbbb1b7188" d="M 0 0
L 0 2
" style="stroke: #000000; stroke-width: 0.6"/>
      </defs>
      <g>
       <use xlink:href="#mdbbb1b7188" x="45.677726" y="185.634938" style="stroke: #000000; stroke-width: 0.6"/>
      </g>
     </g>
    </g>
    <g id="xtick_5">
     <g id="line2d_5">
      <g>
       <use xlink:href="#mdbbb1b7188" x="55.501903" y="185.634938" style="stroke: #000000; stroke-width: 0.6"/>
      </g>
     </g>
    </g>
    <g id="xtick_6">
     <g id="line2d_6">
      <g>
       <use xlink:href="#mdbbb1b7188" x="63.528841" y="185.634938" style="stroke: #000000; stroke-width: 0.6"/>
      </g>
     </g>
    </g>
    <g id="xtick_7">
     <g id="line2d_7">
      <g>
       <use xlink:href="#mdbbb1b7188" x="70.31552" y="185.634938" style="stroke: #000000; stroke-width: 0.6"/>
      </g>
     </g>
    </g>
    <g id="xtick_8">
     <g id="line2d_8">
      <g>
       <use xlink:href="#mdbbb1b7188" x="76.194409" y="185.634938" style="stroke: #000000; stroke-width: 0.6"/>
      </g>
     </g>
    </g>
    <g id="xtick_9">
     <g id="line2d_9">
      <g>
       <use xlink:href="#mdbbb1b7188" x="81.379956" y="185.634938" style="stroke: #000000; stroke-width: 0.6"/>
      </g>
     </g>
    </g>
    <g id="xtick_10">
     <g id="line2d_10">
      <g>
       <use xlink:href="#mdbbb1b7188" x="116.535269" y="185.634938" style="stroke: #000000; stroke-width: 0.6"/>
      </g>
     </g>
    </g>
    <g id="xtick_11">
     <g id="line2d_11">
      <g>
       <use xlink:href="#mdbbb1b7188" x="134.386384" y="185.634938" style="stroke: #000000; stroke-width: 0.6"/>
      </g>
     </g>
    </g>
    <g id="xtick_12">
     <g id="line2d_12">
      <g>
       <use xlink:href="#mdbbb1b7188" x="147.051952" y="185.634938" style="stroke: #000000; stroke-width: 0.6"/>
      </g>
     </g>
    </g>
    <g id="xtick_13">
     <g id="line2d_13">
      <g>
       <use xlink:href="#mdbbb1b7188" x="156.87613" y="185.634938" style="stroke: #000000; stroke-width: 0.6"/>
      </g>
     </g>
    </g>
    <g id="xtick_14">
     <g id="line2d_14">
      <g>
       <use xlink:href="#mdbbb1b7188" x="164.903067" y="185.634938" style="stroke: #000000; stroke-width: 0.6"/>
      </g>
     </g>
    </g>
    <g id="xtick_15">
     <g id="line2d_15">
      <g>
       <use xlink:href="#mdbbb1b7188" x="171.689746" y="185.634938" style="stroke: #000000; stroke-width: 0.6"/>
      </g>
     </g>
    </g>
    <g id="xtick_16">
     <g id="line2d_16">
      <g>
       <use xlink:href="#mdbbb1b7188" x="177.568635" y="185.634938" style="stroke: #000000; stroke-width: 0.6"/>
      </g>
     </g>
    </g>
    <g id="xtick_17">
     <g id="line2d_17">
      <g>
       <use xlink:href="#mdbbb1b7188" x="182.754182" y="185.634938" style="stroke: #000000; stroke-width: 0.6"/>
      </g>
     </g>
    </g>
    <g id="xtick_18">
     <g id="line2d_18">
      <g>
       <use xlink:href="#mdbbb1b7188" x="217.909495" y="185.634938" style="stroke: #000000; stroke-width: 0.6"/>
      </g>
     </g>
    </g>
    <g id="xtick_19">
     <g id="line2d_19">
      <g>
       <use xlink:href="#mdbbb1b7188" x="235.760611" y="185.634938" style="stroke: #000000; stroke-width: 0.6"/>
      </g>
     </g>
    </g>
    <g id="xtick_20">
     <g id="line2d_20">
      <g>
       <use xlink:href="#mdbbb1b7188" x="248.426178" y="185.634938" style="stroke: #000000; stroke-width: 0.6"/>
      </g>
     </g>
    </g>
    <g id="xtick_21">
     <g id="line2d_21">
      <g>
       <use xlink:href="#mdbbb1b7188" x="258.250356" y="185.634938" style="stroke: #000000; stroke-width: 0.6"/>
      </g>
     </g>
    </g>
    <g id="xtick_22">
     <g id="line2d_22">
      <g>
       <use xlink:href="#mdbbb1b7188" x="266.277293" y="185.634938" style="stroke: #000000; stroke-width: 0.6"/>
      </g>
     </g>
    </g>
    <g id="xtick_23">
     <g id="line2d_23">
      <g>
       <use xlink:href="#mdbbb1b7188" x="273.063972" y="185.634938" style="stroke: #000000; stroke-width: 0.6"/>
      </g>
     </g>
    </g>
    <g id="xtick_24">
     <g id="line2d_24">
      <g>
       <use xlink:href="#mdbbb1b7188" x="278.942861" y="185.634938" style="stroke: #000000; stroke-width: 0.6"/>
      </g>
     </g>
    </g>
    <g id="xtick_25">
     <g id="line2d_25">
      <g>
       <use xlink:href="#mdbbb1b7188" x="284.128409" y="185.634938" style="stroke: #000000; stroke-width: 0.6"/>
      </g>
     </g>
    </g>
    <g id="xtick_26">
     <g id="line2d_26">
      <g>
       <use xlink:href="#mdbbb1b7188" x="319.283722" y="185.634938" style="stroke: #000000; stroke-width: 0.6"/>
      </g>
     </g>
    </g>
    <g id="text_4">
     <text style="font-size: 7px; font-family: 'Arial', 'Helvetica', 'DejaVu Sans', sans-serif; text-anchor: middle" x="187.392813" y="210.255406" transform="rotate(-0 187.392813 210.255406)">Penalty lambda</text>
    </g>
   </g>
   <g id="matplotlib.axis_2">
    <g id="ytick_1">
     <g id="line2d_27">
      <defs>
       <path id="m802b1de209" d="M 0 0
L -3.5 0
" style="stroke: #000000; stroke-width: 0.8"/>
      </defs>
      <g>
       <use xlink:href="#m802b1de209" x="42.312813" y="175.708937" style="stroke: #000000; stroke-width: 0.8"/>
      </g>
     </g>
     <g id="text_5">
      <text style="font-size: 7px; font-family: 'Arial', 'Helvetica', 'DejaVu Sans', sans-serif; text-anchor: end" x="35.312813" y="178.214172" transform="rotate(-0 35.312813 178.214172)">−1.00</text>
     </g>
    </g>
    <g id="ytick_2">
     <g id="line2d_28">
      <g>
       <use xlink:href="#m802b1de209" x="42.312813" y="156.350169" style="stroke: #000000; stroke-width: 0.8"/>
      </g>
     </g>
     <g id="text_6">
      <text style="font-size: 7px; font-family: 'Arial', 'Helvetica', 'DejaVu Sans', sans-serif; text-anchor: end" x="35.312813" y="158.855403" transform="rotate(-0 35.312813 158.855403)">−0.75</text>
     </g>
    </g>
    <g id="ytick_3">
     <g id="line2d_29">
      <g>
       <use xlink:href="#m802b1de209" x="42.312813" y="136.9914" style="stroke: #000000; stroke-width: 0.8"/>
      </g>
     </g>
     <g id="text_7">
      <text style="font-size: 7px; font-family: 'Arial', 'Helvetica', 'DejaVu Sans', sans-serif; text-anchor: end" x="35.312813" y="139.496634" transform="rotate(-0 35.312813 139.496634)">−0.50</text>
     </g>
    </g>
    <g id="ytick_4">
     <g id="line2d_30">
      <g>
       <use xlink:href="#m802b1de209" x="42.312813" y="117.632631" style="stroke: #000000; stroke-width: 0.8"/>
      </g>
     </g>
     <g id="text_8">
      <text style="font-size: 7px; font-family: 'Arial', 'Helvetica', 'DejaVu Sans', sans-serif; text-anchor: end" x="35.312813" y="120.137866" transform="rotate(-0 35.312813 120.137866)">−0.25</text>
     </g>
    </g>
    <g id="ytick_5">
     <g id="line2d_31">
      <g>
       <use xlink:href="#m802b1de209" x="42.312813" y="98.273863" style="stroke: #000000; stroke-width: 0.8"/>
      </g>
     </g>
     <g id="text_9">
      <text style="font-size: 7px; font-family: 'Arial', 'Helvetica', 'DejaVu Sans', sans-serif; text-anchor: end" x="35.312813" y="100.779097" transform="rotate(-0 35.312813 100.779097)">0.00</text>
     </g>
    </g>
    <g id="ytick_6">
     <g id="line2d_32">
      <g>
       <use xlink:href="#m802b1de209" x="42.312813" y="78.915094" style="stroke: #000000; stroke-width: 0.8"/>
      </g>
     </g>
     <g id="text_10">
      <text style="font-size: 7px; font-family: 'Arial', 'Helvetica', 'DejaVu Sans', sans-serif; text-anchor: end" x="35.312813" y="81.420328" transform="rotate(-0 35.312813 81.420328)">0.25</text>
     </g>
    </g>
    <g id="ytick_7">
     <g id="line2d_33">
      <g>
       <use xlink:href="#m802b1de209" x="42.312813" y="59.556325" style="stroke: #000000; stroke-width: 0.8"/>
      </g>
     </g>
     <g id="text_11">
      <text style="font-size: 7px; font-family: 'Arial', 'Helvetica', 'DejaVu Sans', sans-serif; text-anchor: end" x="35.312813" y="62.06156" transform="rotate(-0 35.312813 62.06156)">0.50</text>
     </g>
    </g>
    <g id="ytick_8">
     <g id="line2d_34">
      <g>
       <use xlink:href="#m802b1de209" x="42.312813" y="40.197557" style="stroke: #000000; stroke-width: 0.8"/>
      </g>
     </g>
     <g id="text_12">
      <text style="font-size: 7px; font-family: 'Arial', 'Helvetica', 'DejaVu Sans', sans-serif; text-anchor: end" x="35.312813" y="42.702791" transform="rotate(-0 35.312813 42.702791)">0.75</text>
     </g>
    </g>
    <g id="ytick_9">
     <g id="line2d_35">
      <g>
       <use xlink:href="#m802b1de209" x="42.312813" y="20.838788" style="stroke: #000000; stroke-width: 0.8"/>
      </g>
     </g>
     <g id="text_13">
      <text style="font-size: 7px; font-family: 'Arial', 'Helvetica', 'DejaVu Sans', sans-serif; text-anchor: end" x="35.312813" y="23.344022" transform="rotate(-0 35.312813 23.344022)">1.00</text>
     </g>
    </g>
    <g id="text_14">
     <text style="font-size: 7px; font-family: 'Arial', 'Helvetica', 'DejaVu Sans', sans-serif; text-anchor: middle" x="12.210469" y="102.474938" transform="rotate(-90 12.210469 102.474938)">SCAD coefficient</text>
    </g>
   </g>
   <g id="line2d_36">
    <path d="M 55.501903 178.074938
L 86.018586 155.62808
L 116.535269 122.128612
L 156.87613 102.454453
L 187.392812 99.858683
" clip-path="url(#pb203f5250a)" style="fill: none; stroke: #1f5a96; stroke-width: 0.9; stroke-linecap: square"/>
    <defs>
     <path id="meeb4e90bd0" d="M 0 1.25
C 0.331504 1.25 0.649475 1.118292 0.883883 0.883883
C 1.118292 0.649475 1.25 0.331504 1.25 0
C 1.25 -0.331504 1.118292 -0.649475 0.883883 -0.883883
C 0.649475 -1.118292 0.331504 -1.25 0 -1.25
C -0.331504 -1.25 -0.649475 -1.118292 -0.883883 -0.883883
C -1.118292 -0.649475 -1.25 -0.331504 -1.25 0
C -1.25 0.331504 -1.118292 0.649475 -0.883883 0.883883
C -0.649475 1.118292 -0.331504 1.25 0 1.25
z
" style="stroke: #1f5a96"/>
    </defs>
    <g clip-path="url(#pb203f5250a)">
     <use xlink:href="#meeb4e90bd0" x="55.501903" y="178.074938" style="fill: #1f5a96; stroke: #1f5a96"/>
     <use xlink:href="#meeb4e90bd0" x="86.018586" y="155.62808" style="fill: #1f5a96; stroke: #1f5a96"/>
     <use xlink:href="#meeb4e90bd0" x="116.535269" y="122.128612" style="fill: #1f5a96; stroke: #1f5a96"/>
     <use xlink:href="#meeb4e90bd0" x="156.87613" y="102.454453" style="fill: #1f5a96; stroke: #1f5a96"/>
     <use xlink:href="#meeb4e90bd0" x="187.392812" y="99.858683" style="fill: #1f5a96; stroke: #1f5a96"/>
    </g>
   </g>
   <g id="line2d_37">
    <path d="M 55.501903 26.874938
L 86.018586 42.139327
L 116.535269 67.752058
L 156.87613 78.219064
L 187.392812 80.234793
L 217.909495 82.744632
L 258.250356 88.041144
L 288.767039 95.866531
" clip-path="url(#pb203f5250a)" style="fill: none; stroke: #2b9a9c; stroke-width: 0.9; stroke-linecap: square"/>
    <defs>
     <path id="mbbfed39b64" d="M 0 1.25
C 0.331504 1.25 0.649475 1.118292 0.883883 0.883883
C 1.118292 0.649475 1.25 0.331504 1.25 0
C 1.25 -0.331504 1.118292 -0.649475 0.883883 -0.883883
C 0.649475 -1.118292 0.331504 -1.25 0 -1.25
C -0.331504 -1.25 -0.649475 -1.118292 -0.883883 -0.883883
C -1.118292 -0.649475 -1.25 -0.331504 -1.25 0
C -1.25 0.331504 -1.118292 0.649475 -0.883883 0.883883
C -0.649475 1.118292 -0.331504 1.25 0 1.25
z
" style="stroke: #2b9a9c"/>
    </defs>
    <g clip-path="url(#pb203f5250a)">
     <use xlink:href="#mbbfed39b64" x="55.501903" y="26.874938" style="fill: #2b9a9c; stroke: #2b9a9c"/>
     <use xlink:href="#mbbfed39b64" x="86.018586" y="42.139327" style="fill: #2b9a9c; stroke: #2b9a9c"/>
     <use xlink:href="#mbbfed39b64" x="116.535269" y="67.752058" style="fill: #2b9a9c; stroke: #2b9a9c"/>
     <use xlink:href="#mbbfed39b64" x="156.87613" y="78.219064" style="fill: #2b9a9c; stroke: #2b9a9c"/>
     <use xlink:href="#mbbfed39b64" x="187.392812" y="80.234793" style="fill: #2b9a9c; stroke: #2b9a9c"/>
     <use xlink:href="#mbbfed39b64" x="217.909495" y="82.744632" style="fill: #2b9a9c; stroke: #2b9a9c"/>
     <use xlink:href="#mbbfed39b64" x="258.250356" y="88.041144" style="fill: #2b9a9c; stroke: #2b9a9c"/>
     <use xlink:href="#mbbfed39b64" x="288.767039" y="95.866531" style="fill: #2b9a9c; stroke: #2b9a9c"/>
    </g>
   </g>
   <g id="line2d_38">
    <path d="M 55.501903 166.682929
L 86.018586 142.106567
L 116.535269 107.494866
" clip-path="url(#pb203f5250a)" style="fill: none; stroke: #c8a13a; stroke-width: 0.9; stroke-linecap: square"/>
    <defs>
     <path id="mcd65af5372" d="M 0 1.25
C 0.331504 1.25 0.649475 1.118292 0.883883 0.883883
C 1.118292 0.649475 1.25 0.331504 1.25 0
C 1.25 -0.331504 1.118292 -0.649475 0.883883 -0.883883
C 0.649475 -1.118292 0.331504 -1.25 0 -1.25
C -0.331504 -1.25 -0.649475 -1.118292 -0.883883 -0.883883
C -1.118292 -0.649475 -1.25 -0.331504 -1.25 0
C -1.25 0.331504 -1.118292 0.649475 -0.883883 0.883883
C -0.649475 1.118292 -0.331504 1.25 0 1.25
z
" style="stroke: #c8a13a"/>
    </defs>
    <g clip-path="url(#pb203f5250a)">
     <use xlink:href="#mcd65af5372" x="55.501903" y="166.682929" style="fill: #c8a13a; stroke: #c8a13a"/>
     <use xlink:href="#mcd65af5372" x="86.018586" y="142.106567" style="fill: #c8a13a; stroke: #c8a13a"/>
     <use xlink:href="#mcd65af5372" x="116.535269" y="107.494866" style="fill: #c8a13a; stroke: #c8a13a"/>
    </g>
   </g>
   <g id="line2d_39">
    <path d="M 55.501903 162.3532
L 86.018586 146.341509
L 116.535269 115.112639
" clip-path="url(#pb203f5250a)" style="fill: none; stroke: #7e5aa6; stroke-width: 0.9; stroke-linecap: square"/>
    <defs>
     <path id="m756b1f3f2c" d="M 0 1.25
C 0.331504 1.25 0.649475 1.118292 0.883883 0.883883
C 1.118292 0.649475 1.25 0.331504 1.25 0
C 1.25 -0.331504 1.118292 -0.649475 0.883883 -0.883883
C 0.649475 -1.118292 0.331504 -1.25 0 -1.25
C -0.331504 -1.25 -0.649475 -1.118292 -0.883883 -0.883883
C -1.118292 -0.649475 -1.25 -0.331504 -1.25 0
C -1.25 0.331504 -1.118292 0.649475 -0.883883 0.883883
C -0.649475 1.118292 -0.331504 1.25 0 1.25
z
" style="stroke: #7e5aa6"/>
    </defs>
    <g clip-path="url(#pb203f5250a)">
     <use xlink:href="#m756b1f3f2c" x="55.501903" y="162.3532" style="fill: #7e5aa6; stroke: #7e5aa6"/>
     <use xlink:href="#m756b1f3f2c" x="86.018586" y="146.341509" style="fill: #7e5aa6; stroke: #7e5aa6"/>
     <use xlink:href="#m756b1f3f2c" x="116.535269" y="115.112639" style="fill: #7e5aa6; stroke: #7e5aa6"/>
    </g>
   </g>
   <g id="line2d_40">
    <path d="M 55.501903 45.862678
L 86.018586 67.346965
L 116.535269 96.898163
" clip-path="url(#pb203f5250a)" style="fill: none; stroke: #66a65c; stroke-width: 0.9; stroke-linecap: square"/>
    <defs>
     <path id="mee529b043e" d="M 0 1.25
C 0.331504 1.25 0.649475 1.118292 0.883883 0.883883
C 1.118292 0.649475 1.25 0.331504 1.25 0
C 1.25 -0.331504 1.118292 -0.649475 0.883883 -0.883883
C 0.649475 -1.118292 0.331504 -1.25 0 -1.25
C -0.331504 -1.25 -0.649475 -1.118292 -0.883883 -0.883883
C -1.118292 -0.649475 -1.25 -0.331504 -1.25 0
C -1.25 0.331504 -1.118292 0.649475 -0.883883 0.883883
C -0.649475 1.118292 -0.331504 1.25 0 1.25
z
" style="stroke: #66a65c"/>
    </defs>
    <g clip-path="url(#pb203f5250a)">
     <use xlink:href="#mee529b043e" x="55.501903" y="45.862678" style="fill: #66a65c; stroke: #66a65c"/>
     <use xlink:href="#mee529b043e" x="86.018586" y="67.346965" style="fill: #66a65c; stroke: #66a65c"/>
     <use xlink:href="#mee529b043e" x="116.535269" y="96.898163" style="fill: #66a65c; stroke: #66a65c"/>
    </g>
   </g>
   <g id="line2d_41">
    <path d="M 55.501903 146.169518
L 86.018586 129.217894
L 116.535269 107.597395
L 156.87613 102.186366
L 187.392812 100.760448
L 217.909495 99.36301
" clip-path="url(#pb203f5250a)" style="fill: none; stroke: #b64745; stroke-width: 0.9; stroke-linecap: square"/>
    <defs>
     <path id="m942a8c050e" d="M 0 1.25
C 0.331504 1.25 0.649475 1.118292 0.883883 0.883883
C 1.118292 0.649475 1.25 0.331504 1.25 0
C 1.25 -0.331504 1.118292 -0.649475 0.883883 -0.883883
C 0.649475 -1.118292 0.331504 -1.25 0 -1.25
C -0.331504 -1.25 -0.649475 -1.118292 -0.883883 -0.883883
C -1.118292 -0.649475 -1.25 -0.331504 -1.25 0
C -1.25 0.331504 -1.118292 0.649475 -0.883883 0.883883
C -0.649475 1.118292 -0.331504 1.25 0 1.25
z
" style="stroke: #b64745"/>
    </defs>
    <g clip-path="url(#pb203f5250a)">
     <use xlink:href="#m942a8c050e" x="55.501903" y="146.169518" style="fill: #b64745; stroke: #b64745"/>
     <use xlink:href="#m942a8c050e" x="86.018586" y="129.217894" style="fill: #b64745; stroke: #b64745"/>
     <use xlink:href="#m942a8c050e" x="116.535269" y="107.597395" style="fill: #b64745; stroke: #b64745"/>
     <use xlink:href="#m942a8c050e" x="156.87613" y="102.186366" style="fill: #b64745; stroke: #b64745"/>
     <use xlink:href="#m942a8c050e" x="187.392812" y="100.760448" style="fill: #b64745; stroke: #b64745"/>
     <use xlink:href="#m942a8c050e" x="217.909495" y="99.36301" style="fill: #b64745; stroke: #b64745"/>
    </g>
   </g>
   <g id="line2d_42">
    <path d="M 55.501903 56.398557
L 86.018586 71.672564
L 116.535269 93.683578
" clip-path="url(#pb203f5250a)" style="fill: none; stroke: #77a6d8; stroke-width: 0.9; stroke-linecap: square"/>
    <defs>
     <path id="m30cf32cda6" d="M 0 1.25
C 0.331504 1.25 0.649475 1.118292 0.883883 0.883883
C 1.118292 0.649475 1.25 0.331504 1.25 0
C 1.25 -0.331504 1.118292 -0.649475 0.883883 -0.883883
C 0.649475 -1.118292 0.331504 -1.25 0 -1.25
C -0.331504 -1.25 -0.649475 -1.118292 -0.883883 -0.883883
C -1.118292 -0.649475 -1.25 -0.331504 -1.25 0
C -1.25 0.331504 -1.118292 0.649475 -0.883883 0.883883
C -0.649475 1.118292 -0.331504 1.25 0 1.25
z
" style="stroke: #77a6d8"/>
    </defs>
    <g clip-path="url(#pb203f5250a)">
     <use xlink:href="#m30cf32cda6" x="55.501903" y="56.398557" style="fill: #77a6d8; stroke: #77a6d8"/>
     <use xlink:href="#m30cf32cda6" x="86.018586" y="71.672564" style="fill: #77a6d8; stroke: #77a6d8"/>
     <use xlink:href="#m30cf32cda6" x="116.535269" y="93.683578" style="fill: #77a6d8; stroke: #77a6d8"/>
    </g>
   </g>
   <g id="line2d_43">
    <path d="M 55.501903 64.0256
L 86.018586 71.769849
L 116.535269 75.745415
L 156.87613 69.823599
L 187.392812 68.627432
L 217.909495 69.608711
L 258.250356 71.488717
L 288.767039 79.572782
L 319.283722 95.185969
" clip-path="url(#pb203f5250a)" style="fill: none; stroke: #999999; stroke-width: 0.9; stroke-linecap: square"/>
    <defs>
     <path id="mbc453226d9" d="M 0 1.25
C 0.331504 1.25 0.649475 1.118292 0.883883 0.883883
C 1.118292 0.649475 1.25 0.331504 1.25 0
C 1.25 -0.331504 1.118292 -0.649475 0.883883 -0.883883
C 0.649475 -1.118292 0.331504 -1.25 0 -1.25
C -0.331504 -1.25 -0.649475 -1.118292 -0.883883 -0.883883
C -1.118292 -0.649475 -1.25 -0.331504 -1.25 0
C -1.25 0.331504 -1.118292 0.649475 -0.883883 0.883883
C -0.649475 1.118292 -0.331504 1.25 0 1.25
z
" style="stroke: #999999"/>
    </defs>
    <g clip-path="url(#pb203f5250a)">
     <use xlink:href="#mbc453226d9" x="55.501903" y="64.0256" style="fill: #999999; stroke: #999999"/>
     <use xlink:href="#mbc453226d9" x="86.018586" y="71.769849" style="fill: #999999; stroke: #999999"/>
     <use xlink:href="#mbc453226d9" x="116.535269" y="75.745415" style="fill: #999999; stroke: #999999"/>
     <use xlink:href="#mbc453226d9" x="156.87613" y="69.823599" style="fill: #999999; stroke: #999999"/>
     <use xlink:href="#mbc453226d9" x="187.392812" y="68.627432" style="fill: #999999; stroke: #999999"/>
     <use xlink:href="#mbc453226d9" x="217.909495" y="69.608711" style="fill: #999999; stroke: #999999"/>
     <use xlink:href="#mbc453226d9" x="258.250356" y="71.488717" style="fill: #999999; stroke: #999999"/>
     <use xlink:href="#mbc453226d9" x="288.767039" y="79.572782" style="fill: #999999; stroke: #999999"/>
     <use xlink:href="#mbc453226d9" x="319.283722" y="95.185969" style="fill: #999999; stroke: #999999"/>
    </g>
   </g>
   <g id="line2d_44">
    <path d="M 55.501903 73.795581
L 86.018586 96.683301
" clip-path="url(#pb203f5250a)" style="fill: none; stroke: #1f5a96; stroke-width: 0.9; stroke-linecap: square"/>
    <g clip-path="url(#pb203f5250a)">
     <use xlink:href="#meeb4e90bd0" x="55.501903" y="73.795581" style="fill: #1f5a96; stroke: #1f5a96"/>
     <use xlink:href="#meeb4e90bd0" x="86.018586" y="96.683301" style="fill: #1f5a96; stroke: #1f5a96"/>
    </g>
   </g>
   <g id="line2d_45">
    <path d="M 55.501903 122.236029
L 86.018586 106.655945
" clip-path="url(#pb203f5250a)" style="fill: none; stroke: #2b9a9c; stroke-width: 0.9; stroke-linecap: square"/>
    <g clip-path="url(#pb203f5250a)">
     <use xlink:href="#mbbfed39b64" x="55.501903" y="122.236029" style="fill: #2b9a9c; stroke: #2b9a9c"/>
     <use xlink:href="#mbbfed39b64" x="86.018586" y="106.655945" style="fill: #2b9a9c; stroke: #2b9a9c"/>
    </g>
   </g>
   <g id="line2d_46">
    <path d="M 55.501903 115.224308
L 86.018586 105.696493
" clip-path="url(#pb203f5250a)" style="fill: none; stroke: #c8a13a; stroke-width: 0.9; stroke-linecap: square"/>
    <g clip-path="url(#pb203f5250a)">
     <use xlink:href="#mcd65af5372" x="55.501903" y="115.224308" style="fill: #c8a13a; stroke: #c8a13a"/>
     <use xlink:href="#mcd65af5372" x="86.018586" y="105.696493" style="fill: #c8a13a; stroke: #c8a13a"/>
    </g>
   </g>
   <g id="line2d_47">
    <path d="M 55.501903 114.10414
L 86.018586 113.315403
L 116.535269 112.393441
L 156.87613 110.90064
L 187.392812 108.983931
L 217.909495 106.443733
L 258.250356 99.959856
" clip-path="url(#pb203f5250a)" style="fill: none; stroke: #7e5aa6; stroke-width: 0.9; stroke-linecap: square"/>
    <g clip-path="url(#pb203f5250a)">
     <use xlink:href="#m756b1f3f2c" x="55.501903" y="114.10414" style="fill: #7e5aa6; stroke: #7e5aa6"/>
     <use xlink:href="#m756b1f3f2c" x="86.018586" y="113.315403" style="fill: #7e5aa6; stroke: #7e5aa6"/>
     <use xlink:href="#m756b1f3f2c" x="116.535269" y="112.393441" style="fill: #7e5aa6; stroke: #7e5aa6"/>
     <use xlink:href="#m756b1f3f2c" x="156.87613" y="110.90064" style="fill: #7e5aa6; stroke: #7e5aa6"/>
     <use xlink:href="#m756b1f3f2c" x="187.392812" y="108.983931" style="fill: #7e5aa6; stroke: #7e5aa6"/>
     <use xlink:href="#m756b1f3f2c" x="217.909495" y="106.443733" style="fill: #7e5aa6; stroke: #7e5aa6"/>
     <use xlink:href="#m756b1f3f2c" x="258.250356" y="99.959856" style="fill: #7e5aa6; stroke: #7e5aa6"/>
    </g>
   </g>
   <g id="line2d_48">
    <path d="M 42.312813 98.273863
L 332.472813 98.273863
" clip-path="url(#pb203f5250a)" style="fill: none; stroke: #262626; stroke-width: 0.7; stroke-linecap: square"/>
   </g>
   <g id="patch_3">
    <path d="M 42.312813 185.634938
L 42.312813 19.314938
" style="fill: none; stroke: #000000; stroke-width: 0.8; stroke-linejoin: miter; stroke-linecap: square"/>
   </g>
   <g id="patch_4">
    <path d="M 42.312812 185.634938
L 332.472813 185.634938
" style="fill: none; stroke: #000000; stroke-width: 0.8; stroke-linejoin: miter; stroke-linecap: square"/>
   </g>
   <g id="text_15">
    <text style="font-weight: 700; font-size: 8.4px; font-family: 'Arial', 'Helvetica', 'DejaVu Sans', sans-serif; text-anchor: start" x="42.312813" y="13.314938" transform="rotate(-0 42.312813 13.314938)">Largest SCAD coefficients across penalty strengths</text>
   </g>
   <g id="legend_1">
    <g id="line2d_49">
     <path d="M 262.6685 26.023578
L 267.9685 26.023578
L 273.2685 26.023578
" style="fill: none; stroke: #1f5a96; stroke-width: 0.9; stroke-linecap: square"/>
     <g>
      <use xlink:href="#meeb4e90bd0" x="267.9685" y="26.023578" style="fill: #1f5a96; stroke: #1f5a96"/>
     </g>
    </g>
    <g id="text_16">
     <text style="font-size: 5.3px; font-family: 'Arial', 'Helvetica', 'DejaVu Sans', sans-serif; text-anchor: start" x="277.5085" y="27.878578" transform="rotate(-0 277.5085 27.878578)">V443</text>
    </g>
    <g id="line2d_50">
     <path d="M 262.6685 33.520594
L 267.9685 33.520594
L 273.2685 33.520594
" style="fill: none; stroke: #2b9a9c; stroke-width: 0.9; stroke-linecap: square"/>
     <g>
      <use xlink:href="#mbbfed39b64" x="267.9685" y="33.520594" style="fill: #2b9a9c; stroke: #2b9a9c"/>
     </g>
    </g>
    <g id="text_17">
     <text style="font-size: 5.3px; font-family: 'Arial', 'Helvetica', 'DejaVu Sans', sans-serif; text-anchor: start" x="277.5085" y="35.375594" transform="rotate(-0 277.5085 35.375594)">V049</text>
    </g>
    <g id="line2d_51">
     <path d="M 262.6685 41.017609
L 267.9685 41.017609
L 273.2685 41.017609
" style="fill: none; stroke: #c8a13a; stroke-width: 0.9; stroke-linecap: square"/>
     <g>
      <use xlink:href="#mcd65af5372" x="267.9685" y="41.017609" style="fill: #c8a13a; stroke: #c8a13a"/>
     </g>
    </g>
    <g id="text_18">
     <text style="font-size: 5.3px; font-family: 'Arial', 'Helvetica', 'DejaVu Sans', sans-serif; text-anchor: start" x="277.5085" y="42.872609" transform="rotate(-0 277.5085 42.872609)">V379</text>
    </g>
    <g id="line2d_52">
     <path d="M 262.6685 48.514625
L 267.9685 48.514625
L 273.2685 48.514625
" style="fill: none; stroke: #7e5aa6; stroke-width: 0.9; stroke-linecap: square"/>
     <g>
      <use xlink:href="#m756b1f3f2c" x="267.9685" y="48.514625" style="fill: #7e5aa6; stroke: #7e5aa6"/>
     </g>
    </g>
    <g id="text_19">
     <text style="font-size: 5.3px; font-family: 'Arial', 'Helvetica', 'DejaVu Sans', sans-serif; text-anchor: start" x="277.5085" y="50.369625" transform="rotate(-0 277.5085 50.369625)">V319</text>
    </g>
    <g id="line2d_53">
     <path d="M 262.6685 56.011641
L 267.9685 56.011641
L 273.2685 56.011641
" style="fill: none; stroke: #66a65c; stroke-width: 0.9; stroke-linecap: square"/>
     <g>
      <use xlink:href="#mee529b043e" x="267.9685" y="56.011641" style="fill: #66a65c; stroke: #66a65c"/>
     </g>
    </g>
    <g id="text_20">
     <text style="font-size: 5.3px; font-family: 'Arial', 'Helvetica', 'DejaVu Sans', sans-serif; text-anchor: start" x="277.5085" y="57.866641" transform="rotate(-0 277.5085 57.866641)">V494</text>
    </g>
    <g id="line2d_54">
     <path d="M 262.6685 63.508656
L 267.9685 63.508656
L 273.2685 63.508656
" style="fill: none; stroke: #b64745; stroke-width: 0.9; stroke-linecap: square"/>
     <g>
      <use xlink:href="#m942a8c050e" x="267.9685" y="63.508656" style="fill: #b64745; stroke: #b64745"/>
     </g>
    </g>
    <g id="text_21">
     <text style="font-size: 5.3px; font-family: 'Arial', 'Helvetica', 'DejaVu Sans', sans-serif; text-anchor: start" x="277.5085" y="65.363656" transform="rotate(-0 277.5085 65.363656)">V154</text>
    </g>
    <g id="line2d_55">
     <path d="M 300.485656 26.023578
L 305.785656 26.023578
L 311.085656 26.023578
" style="fill: none; stroke: #77a6d8; stroke-width: 0.9; stroke-linecap: square"/>
     <g>
      <use xlink:href="#m30cf32cda6" x="305.785656" y="26.023578" style="fill: #77a6d8; stroke: #77a6d8"/>
     </g>
    </g>
    <g id="text_22">
     <text style="font-size: 5.3px; font-family: 'Arial', 'Helvetica', 'DejaVu Sans', sans-serif; text-anchor: start" x="315.325656" y="27.878578" transform="rotate(-0 315.325656 27.878578)">V452</text>
    </g>
    <g id="line2d_56">
     <path d="M 300.485656 33.520594
L 305.785656 33.520594
L 311.085656 33.520594
" style="fill: none; stroke: #999999; stroke-width: 0.9; stroke-linecap: square"/>
     <g>
      <use xlink:href="#mbc453226d9" x="305.785656" y="33.520594" style="fill: #999999; stroke: #999999"/>
     </g>
    </g>
    <g id="text_23">
     <text style="font-size: 5.3px; font-family: 'Arial', 'Helvetica', 'DejaVu Sans', sans-serif; text-anchor: start" x="315.325656" y="35.375594" transform="rotate(-0 315.325656 35.375594)">V476</text>
    </g>
    <g id="line2d_57">
     <path d="M 300.485656 41.017609
L 305.785656 41.017609
L 311.085656 41.017609
" style="fill: none; stroke: #1f5a96; stroke-width: 0.9; stroke-linecap: square"/>
     <g>
      <use xlink:href="#meeb4e90bd0" x="305.785656" y="41.017609" style="fill: #1f5a96; stroke: #1f5a96"/>
     </g>
    </g>
    <g id="text_24">
     <text style="font-size: 5.3px; font-family: 'Arial', 'Helvetica', 'DejaVu Sans', sans-serif; text-anchor: start" x="315.325656" y="42.872609" transform="rotate(-0 315.325656 42.872609)">V065</text>
    </g>
    <g id="line2d_58">
     <path d="M 300.485656 48.514625
L 305.785656 48.514625
L 311.085656 48.514625
" style="fill: none; stroke: #2b9a9c; stroke-width: 0.9; stroke-linecap: square"/>
     <g>
      <use xlink:href="#mbbfed39b64" x="305.785656" y="48.514625" style="fill: #2b9a9c; stroke: #2b9a9c"/>
     </g>
    </g>
    <g id="text_25">
     <text style="font-size: 5.3px; font-family: 'Arial', 'Helvetica', 'DejaVu Sans', sans-serif; text-anchor: start" x="315.325656" y="50.369625" transform="rotate(-0 315.325656 50.369625)">V282</text>
    </g>
    <g id="line2d_59">
     <path d="M 300.485656 56.011641
L 305.785656 56.011641
L 311.085656 56.011641
" style="fill: none; stroke: #c8a13a; stroke-width: 0.9; stroke-linecap: square"/>
     <g>
      <use xlink:href="#mcd65af5372" x="305.785656" y="56.011641" style="fill: #c8a13a; stroke: #c8a13a"/>
     </g>
    </g>
    <g id="text_26">
     <text style="font-size: 5.3px; font-family: 'Arial', 'Helvetica', 'DejaVu Sans', sans-serif; text-anchor: start" x="315.325656" y="57.866641" transform="rotate(-0 315.325656 57.866641)">V029</text>
    </g>
    <g id="line2d_60">
     <path d="M 300.485656 63.508656
L 305.785656 63.508656
L 311.085656 63.508656
" style="fill: none; stroke: #7e5aa6; stroke-width: 0.9; stroke-linecap: square"/>
     <g>
      <use xlink:href="#m756b1f3f2c" x="305.785656" y="63.508656" style="fill: #7e5aa6; stroke: #7e5aa6"/>
     </g>
    </g>
    <g id="text_27">
     <text style="font-size: 5.3px; font-family: 'Arial', 'Helvetica', 'DejaVu Sans', sans-serif; text-anchor: start" x="315.325656" y="65.363656" transform="rotate(-0 315.325656 65.363656)">V324</text>
    </g>
   </g>
  </g>
 </g>
 <defs>
  <clipPath id="pb203f5250a">
   <rect x="42.312813" y="19.314938" width="290.16" height="166.32"/>
  </clipPath>
 </defs>
</svg>
