<?xml version="1.0" encoding="utf-8" standalone="no"?>
<!DOCTYPE svg PUBLIC "-//W3C//DTD SVG 1.1//EN"
  "http://www.w3.org/Graphics/SVG/1.1/DTD/svg11.dtd">
<svg xmlns:xlink="http://www.w3.org/1999/xlink" width="262.787031pt" height="194.442031pt" viewBox="0 0 262.787031 194.442031" xmlns="http://www.w3.org/2000/svg" version="1.1">
 <metadata>
  <rdf:RDF xmlns:dc="http://purl.org/dc/elements/1.1/" xmlns:cc="http://creativecommons.org/ns#" xmlns:rdf="http://www.w3.org/1999/02/22-rdf-syntax-ns#">
   <cc:Work>
    <dc:type rdf:resource="http://purl.org/dc/dcmitype/StillImage"/>
    <dc:date>2026-06-07T18:57:21.190998</dc:date>
    <dc:format>image/svg+xml</dc:format>
    <dc:creator>
     <cc:Agent>
      <dc:title>Matplotlib v3.10.8, https://matplotlib.org/</dc:title>
     </cc:Agent>
    </dc:creator>
   </cc:Work>
  </rdf:RDF>
 </metadata>
 <defs>
  <style type="text/css">*{stroke-linejoin: round; stroke-linecap: butt}</style>
 </defs>
 <g id="figure_1">
  <g id="patch_1">
   <path d="M 0 194.442031 
L 262.787031 194.442031 
L 262.787031 -0 
L 0 -0 
z
" style="fill: #ffffff"/>
  </g>
  <g id="axes_1">
   <g id="patch_2">
    <path d="M 32.387031 163.356562 
L 255.587031 163.356562 
L 255.587031 19.212562 
L 32.387031 19.212562 
z
" style="fill: #ffffff"/>
   </g>
   <g id="patch_3">
    <path d="M 42.532486 163.356562 
L 47.041577 163.356562 
L 47.041577 125.916562 
L 42.532486 125.916562 
z
" clip-path="url(#pce1d651a1f)" style="fill: #1f5a96; stroke: #ffffff; stroke-width: 0.3; stroke-linejoin: miter"/>
   </g>
   <g id="patch_4">
    <path d="M 47.041577 163.356562 
L 51.550668 163.356562 
L 51.550668 42.716562 
L 47.041577 42.716562 
z
" clip-path="url(#pce1d651a1f)" style="fill: #1f5a96; stroke: #ffffff; stroke-width: 0.3; stroke-linejoin: miter"/>
   </g>
   <g id="patch_5">
    <path d="M 51.550668 163.356562 
L 56.059759 163.356562 
L 56.059759 67.676562 
L 51.550668 67.676562 
z
" clip-path="url(#pce1d651a1f)" style="fill: #1f5a96; stroke: #ffffff; stroke-width: 0.3; stroke-linejoin: miter"/>
   </g>
   <g id="patch_6">
    <path d="M 56.059759 163.356562 
L 60.568849 163.356562 
L 60.568849 46.876562 
L 56.059759 46.876562 
z
" clip-path="url(#pce1d651a1f)" style="fill: #1f5a96; stroke: #ffffff; stroke-width: 0.3; stroke-linejoin: miter"/>
   </g>
   <g id="patch_7">
    <path d="M 60.568849 163.356562 
L 65.07794 163.356562 
L 65.07794 26.076562 
L 60.568849 26.076562 
z
" clip-path="url(#pce1d651a1f)" style="fill: #1f5a96; stroke: #ffffff; stroke-width: 0.3; stroke-linejoin: miter"/>
   </g>
   <g id="patch_8">
    <path d="M 65.07794 163.356562 
L 69.587031 163.356562 
L 69.587031 51.036562 
L 65.07794 51.036562 
z
" clip-path="url(#pce1d651a1f)" style="fill: #1f5a96; stroke: #ffffff; stroke-width: 0.3; stroke-linejoin: miter"/>
   </g>
   <g id="patch_9">
    <path d="M 69.587031 163.356562 
L 74.096122 163.356562 
L 74.096122 51.036562 
L 69.587031 51.036562 
z
" clip-path="url(#pce1d651a1f)" style="fill: #1f5a96; stroke: #ffffff; stroke-width: 0.3; stroke-linejoin: miter"/>
   </g>
   <g id="patch_10">
    <path d="M 74.096122 163.356562 
L 78.605213 163.356562 
L 78.605213 84.316562 
L 74.096122 84.316562 
z
" clip-path="url(#pce1d651a1f)" style="fill: #1f5a96; stroke: #ffffff; stroke-width: 0.3; stroke-linejoin: miter"/>
   </g>
   <g id="patch_11">
    <path d="M 78.605213 163.356562 
L 83.114304 163.356562 
L 83.114304 67.676562 
L 78.605213 67.676562 
z
" clip-path="url(#pce1d651a1f)" style="fill: #1f5a96; stroke: #ffffff; stroke-width: 0.3; stroke-linejoin: miter"/>
   </g>
   <g id="patch_12">
    <path d="M 83.114304 163.356562 
L 87.623395 163.356562 
L 87.623395 59.356562 
L 83.114304 59.356562 
z
" clip-path="url(#pce1d651a1f)" style="fill: #1f5a96; stroke: #ffffff; stroke-width: 0.3; stroke-linejoin: miter"/>
   </g>
   <g id="patch_13">
    <path d="M 87.623395 163.356562 
L 92.132486 163.356562 
L 92.132486 92.636562 
L 87.623395 92.636562 
z
" clip-path="url(#pce1d651a1f)" style="fill: #1f5a96; stroke: #ffffff; stroke-width: 0.3; stroke-linejoin: miter"/>
   </g>
   <g id="patch_14">
    <path d="M 92.132486 163.356562 
L 96.641577 163.356562 
L 96.641577 113.436562 
L 92.132486 113.436562 
z
" clip-path="url(#pce1d651a1f)" style="fill: #1f5a96; stroke: #ffffff; stroke-width: 0.3; stroke-linejoin: miter"/>
   </g>
   <g id="patch_15">
    <path d="M 96.641577 163.356562 
L 101.150668 163.356562 
L 101.150668 113.436562 
L 96.641577 113.436562 
z
" clip-path="url(#pce1d651a1f)" style="fill: #1f5a96; stroke: #ffffff; stroke-width: 0.3; stroke-linejoin: miter"/>
   </g>
   <g id="patch_16">
    <path d="M 101.150668 163.356562 
L 105.659759 163.356562 
L 105.659759 80.156562 
L 101.150668 80.156562 
z
" clip-path="url(#pce1d651a1f)" style="fill: #1f5a96; stroke: #ffffff; stroke-width: 0.3; stroke-linejoin: miter"/>
   </g>
   <g id="patch_17">
    <path d="M 105.659759 163.356562 
L 110.168849 163.356562 
L 110.168849 121.756562 
L 105.659759 121.756562 
z
" clip-path="url(#pce1d651a1f)" style="fill: #1f5a96; stroke: #ffffff; stroke-width: 0.3; stroke-linejoin: miter"/>
   </g>
   <g id="patch_18">
    <path d="M 110.168849 163.356562 
L 114.67794 163.356562 
L 114.67794 92.636562 
L 110.168849 92.636562 
z
" clip-path="url(#pce1d651a1f)" style="fill: #1f5a96; stroke: #ffffff; stroke-width: 0.3; stroke-linejoin: miter"/>
   </g>
   <g id="patch_19">
    <path d="M 114.67794 163.356562 
L 119.187031 163.356562 
L 119.187031 100.956562 
L 114.67794 100.956562 
z
" clip-path="url(#pce1d651a1f)" style="fill: #1f5a96; stroke: #ffffff; stroke-width: 0.3; stroke-linejoin: miter"/>
   </g>
   <g id="patch_20">
    <path d="M 119.187031 163.356562 
L 123.696122 163.356562 
L 123.696122 125.916562 
L 119.187031 125.916562 
z
" clip-path="url(#pce1d651a1f)" style="fill: #1f5a96; stroke: #ffffff; stroke-width: 0.3; stroke-linejoin: miter"/>
   </g>
   <g id="patch_21">
    <path d="M 123.696122 163.356562 
L 128.205213 163.356562 
L 128.205213 130.076562 
L 123.696122 130.076562 
z
" clip-path="url(#pce1d651a1f)" style="fill: #1f5a96; stroke: #ffffff; stroke-width: 0.3; stroke-linejoin: miter"/>
   </g>
   <g id="patch_22">
    <path d="M 128.205213 163.356562 
L 132.714304 163.356562 
L 132.714304 121.756562 
L 128.205213 121.756562 
z
" clip-path="url(#pce1d651a1f)" style="fill: #1f5a96; stroke: #ffffff; stroke-width: 0.3; stroke-linejoin: miter"/>
   </g>
   <g id="patch_23">
    <path d="M 132.714304 163.356562 
L 137.223395 163.356562 
L 137.223395 125.916562 
L 132.714304 125.916562 
z
" clip-path="url(#pce1d651a1f)" style="fill: #1f5a96; stroke: #ffffff; stroke-width: 0.3; stroke-linejoin: miter"/>
   </g>
   <g id="patch_24">
    <path d="M 137.223395 163.356562 
L 141.732486 163.356562 
L 141.732486 134.236562 
L 137.223395 134.236562 
z
" clip-path="url(#pce1d651a1f)" style="fill: #1f5a96; stroke: #ffffff; stroke-width: 0.3; stroke-linejoin: miter"/>
   </g>
   <g id="patch_25">
    <path d="M 141.732486 163.356562 
L 146.241577 163.356562 
L 146.241577 113.436562 
L 141.732486 113.436562 
z
" clip-path="url(#pce1d651a1f)" style="fill: #1f5a96; stroke: #ffffff; stroke-width: 0.3; stroke-linejoin: miter"/>
   </g>
   <g id="patch_26">
    <path d="M 146.241577 163.356562 
L 150.750668 163.356562 
L 150.750668 134.236562 
L 146.241577 134.236562 
z
" clip-path="url(#pce1d651a1f)" style="fill: #1f5a96; stroke: #ffffff; stroke-width: 0.3; stroke-linejoin: miter"/>
   </g>
   <g id="patch_27">
    <path d="M 150.750668 163.356562 
L 155.259759 163.356562 
L 155.259759 134.236562 
L 150.750668 134.236562 
z
" clip-path="url(#pce1d651a1f)" style="fill: #1f5a96; stroke: #ffffff; stroke-width: 0.3; stroke-linejoin: miter"/>
   </g>
   <g id="patch_28">
    <path d="M 155.259759 163.356562 
L 159.768849 163.356562 
L 159.768849 121.756562 
L 155.259759 121.756562 
z
" clip-path="url(#pce1d651a1f)" style="fill: #1f5a96; stroke: #ffffff; stroke-width: 0.3; stroke-linejoin: miter"/>
   </g>
   <g id="patch_29">
    <path d="M 159.768849 163.356562 
L 164.27794 163.356562 
L 164.27794 113.436562 
L 159.768849 113.436562 
z
" clip-path="url(#pce1d651a1f)" style="fill: #1f5a96; stroke: #ffffff; stroke-width: 0.3; stroke-linejoin: miter"/>
   </g>
   <g id="patch_30">
    <path d="M 164.27794 163.356562 
L 168.787031 163.356562 
L 168.787031 142.556562 
L 164.27794 142.556562 
z
" clip-path="url(#pce1d651a1f)" style="fill: #1f5a96; stroke: #ffffff; stroke-width: 0.3; stroke-linejoin: miter"/>
   </g>
   <g id="patch_31">
    <path d="M 168.787031 163.356562 
L 173.296122 163.356562 
L 173.296122 138.396562 
L 168.787031 138.396562 
z
" clip-path="url(#pce1d651a1f)" style="fill: #1f5a96; stroke: #ffffff; stroke-width: 0.3; stroke-linejoin: miter"/>
   </g>
   <g id="patch_32">
    <path d="M 173.296122 163.356562 
L 177.805213 163.356562 
L 177.805213 138.396562 
L 173.296122 138.396562 
z
" clip-path="url(#pce1d651a1f)" style="fill: #1f5a96; stroke: #ffffff; stroke-width: 0.3; stroke-linejoin: miter"/>
   </g>
   <g id="patch_33">
    <path d="M 177.805213 163.356562 
L 182.314304 163.356562 
L 182.314304 134.236562 
L 177.805213 134.236562 
z
" clip-path="url(#pce1d651a1f)" style="fill: #1f5a96; stroke: #ffffff; stroke-width: 0.3; stroke-linejoin: miter"/>
   </g>
   <g id="patch_34">
    <path d="M 182.314304 163.356562 
L 186.823395 163.356562 
L 186.823395 155.036563 
L 182.314304 155.036563 
z
" clip-path="url(#pce1d651a1f)" style="fill: #1f5a96; stroke: #ffffff; stroke-width: 0.3; stroke-linejoin: miter"/>
   </g>
   <g id="patch_35">
    <path d="M 186.823395 163.356562 
L 191.332486 163.356562 
L 191.332486 146.716562 
L 186.823395 146.716562 
z
" clip-path="url(#pce1d651a1f)" style="fill: #1f5a96; stroke: #ffffff; stroke-width: 0.3; stroke-linejoin: miter"/>
   </g>
   <g id="patch_36">
    <path d="M 191.332486 163.356562 
L 195.841577 163.356562 
L 195.841577 150.876562 
L 191.332486 150.876562 
z
" clip-path="url(#pce1d651a1f)" style="fill: #1f5a96; stroke: #ffffff; stroke-width: 0.3; stroke-linejoin: miter"/>
   </g>
   <g id="patch_37">
    <path d="M 195.841577 163.356562 
L 200.350668 163.356562 
L 200.350668 134.236562 
L 195.841577 134.236562 
z
" clip-path="url(#pce1d651a1f)" style="fill: #1f5a96; stroke: #ffffff; stroke-width: 0.3; stroke-linejoin: miter"/>
   </g>
   <g id="patch_38">
    <path d="M 200.350668 163.356562 
L 204.859759 163.356562 
L 204.859759 163.356562 
L 200.350668 163.356562 
z
" clip-path="url(#pce1d651a1f)" style="fill: #1f5a96; stroke: #ffffff; stroke-width: 0.3; stroke-linejoin: miter"/>
   </g>
   <g id="patch_39">
    <path d="M 204.859759 163.356562 
L 209.368849 163.356562 
L 209.368849 146.716562 
L 204.859759 146.716562 
z
" clip-path="url(#pce1d651a1f)" style="fill: #1f5a96; stroke: #ffffff; stroke-width: 0.3; stroke-linejoin: miter"/>
   </g>
   <g id="patch_40">
    <path d="M 209.368849 163.356562 
L 213.87794 163.356562 
L 213.87794 142.556562 
L 209.368849 142.556562 
z
" clip-path="url(#pce1d651a1f)" style="fill: #1f5a96; stroke: #ffffff; stroke-width: 0.3; stroke-linejoin: miter"/>
   </g>
   <g id="patch_41">
    <path d="M 213.87794 163.356562 
L 218.387031 163.356562 
L 218.387031 146.716562 
L 213.87794 146.716562 
z
" clip-path="url(#pce1d651a1f)" style="fill: #1f5a96; stroke: #ffffff; stroke-width: 0.3; stroke-linejoin: miter"/>
   </g>
   <g id="patch_42">
    <path d="M 218.387031 163.356562 
L 222.896122 163.356562 
L 222.896122 159.196562 
L 218.387031 159.196562 
z
" clip-path="url(#pce1d651a1f)" style="fill: #1f5a96; stroke: #ffffff; stroke-width: 0.3; stroke-linejoin: miter"/>
   </g>
   <g id="patch_43">
    <path d="M 222.896122 163.356562 
L 227.405213 163.356562 
L 227.405213 159.196562 
L 222.896122 159.196562 
z
" clip-path="url(#pce1d651a1f)" style="fill: #1f5a96; stroke: #ffffff; stroke-width: 0.3; stroke-linejoin: miter"/>
   </g>
   <g id="patch_44">
    <path d="M 227.405213 163.356562 
L 231.914304 163.356562 
L 231.914304 155.036563 
L 227.405213 155.036563 
z
" clip-path="url(#pce1d651a1f)" style="fill: #1f5a96; stroke: #ffffff; stroke-width: 0.3; stroke-linejoin: miter"/>
   </g>
   <g id="patch_45">
    <path d="M 231.914304 163.356562 
L 236.423395 163.356562 
L 236.423395 163.356562 
L 231.914304 163.356562 
z
" clip-path="url(#pce1d651a1f)" style="fill: #1f5a96; stroke: #ffffff; stroke-width: 0.3; stroke-linejoin: miter"/>
   </g>
   <g id="patch_46">
    <path d="M 236.423395 163.356562 
L 240.932486 163.356562 
L 240.932486 155.036563 
L 236.423395 155.036563 
z
" clip-path="url(#pce1d651a1f)" style="fill: #1f5a96; stroke: #ffffff; stroke-width: 0.3; stroke-linejoin: miter"/>
   </g>
   <g id="patch_47">
    <path d="M 240.932486 163.356562 
L 245.441577 163.356562 
L 245.441577 146.716562 
L 240.932486 146.716562 
z
" clip-path="url(#pce1d651a1f)" style="fill: #1f5a96; stroke: #ffffff; stroke-width: 0.3; stroke-linejoin: miter"/>
   </g>
   <g id="matplotlib.axis_1">
    <g id="xtick_1">
     <g id="line2d_1">
      <defs>
       <path id="mb6e52a2c29" d="M 0 0 
L 0 3.5 
" style="stroke: #000000; stroke-width: 0.8"/>
      </defs>
      <g>
       <use xlink:href="#mb6e52a2c29" x="65.472557" y="163.356562" style="stroke: #000000; stroke-width: 0.8"/>
      </g>
     </g>
     <g id="text_1">
      <text style="font-size: 7px; font-family: 'Arial', 'Helvetica', 'DejaVu Sans', sans-serif; text-anchor: middle" x="65.472557" y="175.367031" transform="rotate(-0 65.472557 175.367031)">480</text>
     </g>
    </g>
    <g id="xtick_2">
     <g id="line2d_2">
      <g>
       <use xlink:href="#mb6e52a2c29" x="113.016746" y="163.356562" style="stroke: #000000; stroke-width: 0.8"/>
      </g>
     </g>
     <g id="text_2">
      <text style="font-size: 7px; font-family: 'Arial', 'Helvetica', 'DejaVu Sans', sans-serif; text-anchor: middle" x="113.016746" y="175.367031" transform="rotate(-0 113.016746 175.367031)">490</text>
     </g>
    </g>
    <g id="xtick_3">
     <g id="line2d_3">
      <g>
       <use xlink:href="#mb6e52a2c29" x="160.560936" y="163.356562" style="stroke: #000000; stroke-width: 0.8"/>
      </g>
     </g>
     <g id="text_3">
      <text style="font-size: 7px; font-family: 'Arial', 'Helvetica', 'DejaVu Sans', sans-serif; text-anchor: middle" x="160.560936" y="175.367031" transform="rotate(-0 160.560936 175.367031)">500</text>
     </g>
    </g>
    <g id="xtick_4">
     <g id="line2d_4">
      <g>
       <use xlink:href="#mb6e52a2c29" x="208.105125" y="163.356562" style="stroke: #000000; stroke-width: 0.8"/>
      </g>
     </g>
     <g id="text_4">
      <text style="font-size: 7px; font-family: 'Arial', 'Helvetica', 'DejaVu Sans', sans-serif; text-anchor: middle" x="208.105125" y="175.367031" transform="rotate(-0 208.105125 175.367031)">510</text>
     </g>
    </g>
    <g id="text_5">
     <text style="font-size: 7px; font-family: 'Arial', 'Helvetica', 'DejaVu Sans', sans-serif; text-anchor: middle" x="143.987031" y="185.76875" transform="rotate(-0 143.987031 185.76875)">Mean over training samples</text>
    </g>
   </g>
   <g id="matplotlib.axis_2">
    <g id="ytick_1">
     <g id="line2d_5">
      <defs>
       <path id="m6c1f7279d6" d="M 0 0 
L -3.5 0 
" style="stroke: #000000; stroke-width: 0.8"/>
      </defs>
      <g>
       <use xlink:href="#m6c1f7279d6" x="32.387031" y="163.356562" style="stroke: #000000; stroke-width: 0.8"/>
      </g>
     </g>
     <g id="text_6">
      <text style="font-size: 7px; font-family: 'Arial', 'Helvetica', 'DejaVu Sans', sans-serif; text-anchor: end" x="25.387031" y="165.861797" transform="rotate(-0 25.387031 165.861797)">0</text>
     </g>
    </g>
    <g id="ytick_2">
     <g id="line2d_6">
      <g>
       <use xlink:href="#m6c1f7279d6" x="32.387031" y="142.556562" style="stroke: #000000; stroke-width: 0.8"/>
      </g>
     </g>
     <g id="text_7">
      <text style="font-size: 7px; font-family: 'Arial', 'Helvetica', 'DejaVu Sans', sans-serif; text-anchor: end" x="25.387031" y="145.061797" transform="rotate(-0 25.387031 145.061797)">5</text>
     </g>
    </g>
    <g id="ytick_3">
     <g id="line2d_7">
      <g>
       <use xlink:href="#m6c1f7279d6" x="32.387031" y="121.756562" style="stroke: #000000; stroke-width: 0.8"/>
      </g>
     </g>
     <g id="text_8">
      <text style="font-size: 7px; font-family: 'Arial', 'Helvetica', 'DejaVu Sans', sans-serif; text-anchor: end" x="25.387031" y="124.261797" transform="rotate(-0 25.387031 124.261797)">10</text>
     </g>
    </g>
    <g id="ytick_4">
     <g id="line2d_8">
      <g>
       <use xlink:href="#m6c1f7279d6" x="32.387031" y="100.956562" style="stroke: #000000; stroke-width: 0.8"/>
      </g>
     </g>
     <g id="text_9">
      <text style="font-size: 7px; font-family: 'Arial', 'Helvetica', 'DejaVu Sans', sans-serif; text-anchor: end" x="25.387031" y="103.461797" transform="rotate(-0 25.387031 103.461797)">15</text>
     </g>
    </g>
    <g id="ytick_5">
     <g id="line2d_9">
      <g>
       <use xlink:href="#m6c1f7279d6" x="32.387031" y="80.156562" style="stroke: #000000; stroke-width: 0.8"/>
      </g>
     </g>
     <g id="text_10">
      <text style="font-size: 7px; font-family: 'Arial', 'Helvetica', 'DejaVu Sans', sans-serif; text-anchor: end" x="25.387031" y="82.661797" transform="rotate(-0 25.387031 82.661797)">20</text>
     </g>
    </g>
    <g id="ytick_6">
     <g id="line2d_10">
      <g>
       <use xlink:href="#m6c1f7279d6" x="32.387031" y="59.356562" style="stroke: #000000; stroke-width: 0.8"/>
      </g>
     </g>
     <g id="text_11">
      <text style="font-size: 7px; font-family: 'Arial', 'Helvetica', 'DejaVu Sans', sans-serif; text-anchor: end" x="25.387031" y="61.861797" transform="rotate(-0 25.387031 61.861797)">25</text>
     </g>
    </g>
    <g id="ytick_7">
     <g id="line2d_11">
      <g>
       <use xlink:href="#m6c1f7279d6" x="32.387031" y="38.556562" style="stroke: #000000; stroke-width: 0.8"/>
      </g>
     </g>
     <g id="text_12">
      <text style="font-size: 7px; font-family: 'Arial', 'Helvetica', 'DejaVu Sans', sans-serif; text-anchor: end" x="25.387031" y="41.061797" transform="rotate(-0 25.387031 41.061797)">30</text>
     </g>
    </g>
    <g id="text_13">
     <text style="font-size: 7px; font-family: 'Arial', 'Helvetica', 'DejaVu Sans', sans-serif; text-anchor: middle" x="12.210469" y="91.284562" transform="rotate(-90 12.210469 91.284562)">Features</text>
    </g>
   </g>
   <g id="patch_48">
    <path d="M 32.387031 163.356562 
L 32.387031 19.212562 
" style="fill: none; stroke: #000000; stroke-width: 0.8; stroke-linejoin: miter; stroke-linecap: square"/>
   </g>
   <g id="patch_49">
    <path d="M 32.387031 163.356562 
L 255.587031 163.356562 
" style="fill: none; stroke: #000000; stroke-width: 0.8; stroke-linejoin: miter; stroke-linecap: square"/>
   </g>
   <g id="text_14">
    <text style="font-weight: 700; font-size: 8.4px; font-family: 'Arial', 'Helvetica', 'DejaVu Sans', sans-serif; text-anchor: start" x="32.387031" y="13.212562" transform="rotate(-0 32.387031 13.212562)">Distribution of feature means</text>
   </g>
  </g>
 </g>
 <defs>
  <clipPath id="pce1d651a1f">
   <rect x="32.387031" y="19.212562" width="223.2" height="144.144"/>
  </clipPath>
 </defs>
</svg>
