<?xml version="1.0" encoding="utf-8" standalone="no"?>
<!DOCTYPE svg PUBLIC "-//W3C//DTD SVG 1.1//EN"
  "http://www.w3.org/Graphics/SVG/1.1/DTD/svg11.dtd">
<svg xmlns:xlink="http://www.w3.org/1999/xlink" width="266.728631pt" height="194.442031pt" viewBox="0 0 266.728631 194.442031" xmlns="http://www.w3.org/2000/svg" version="1.1">
 <metadata>
  <rdf:RDF xmlns:dc="http://purl.org/dc/elements/1.1/" xmlns:cc="http://creativecommons.org/ns#" xmlns:rdf="http://www.w3.org/1999/02/22-rdf-syntax-ns#">
   <cc:Work>
    <dc:type rdf:resource="http://purl.org/dc/dcmitype/StillImage"/>
    <dc:date>2026-06-07T18:57:21.432956</dc:date>
    <dc:format>image/svg+xml</dc:format>
    <dc:creator>
     <cc:Agent>
      <dc:title>Matplotlib v3.10.8, https://matplotlib.org/</dc:title>
     </cc:Agent>
    </dc:creator>
   </cc:Work>
  </rdf:RDF>
 </metadata>
 <defs>
  <style type="text/css">*{stroke-linejoin: round; stroke-linecap: butt}</style>
 </defs>
 <g id="figure_1">
  <g id="patch_1">
   <path d="M 0 194.442031 
L 266.728631 194.442031 
L 266.728631 -0 
L 0 -0 
z
" style="fill: #ffffff"/>
  </g>
  <g id="axes_1">
   <g id="patch_2">
    <path d="M 32.387031 163.356562 
L 255.587031 163.356562 
L 255.587031 19.212562 
L 32.387031 19.212562 
z
" style="fill: #ffffff"/>
   </g>
   <g id="patch_3">
    <path d="M 42.532486 163.356562 
L 47.041577 163.356562 
L 47.041577 81.572733 
L 42.532486 81.572733 
z
" clip-path="url(#p0b1fc7234d)" style="fill: #2b9a9c; stroke: #ffffff; stroke-width: 0.3; stroke-linejoin: miter"/>
   </g>
   <g id="patch_4">
    <path d="M 47.041577 163.356562 
L 51.550668 163.356562 
L 51.550668 52.364222 
L 47.041577 52.364222 
z
" clip-path="url(#p0b1fc7234d)" style="fill: #2b9a9c; stroke: #ffffff; stroke-width: 0.3; stroke-linejoin: miter"/>
   </g>
   <g id="patch_5">
    <path d="M 51.550668 163.356562 
L 56.059759 163.356562 
L 56.059759 72.81018 
L 51.550668 72.81018 
z
" clip-path="url(#p0b1fc7234d)" style="fill: #2b9a9c; stroke: #ffffff; stroke-width: 0.3; stroke-linejoin: miter"/>
   </g>
   <g id="patch_6">
    <path d="M 56.059759 163.356562 
L 60.568849 163.356562 
L 60.568849 37.759967 
L 56.059759 37.759967 
z
" clip-path="url(#p0b1fc7234d)" style="fill: #2b9a9c; stroke: #ffffff; stroke-width: 0.3; stroke-linejoin: miter"/>
   </g>
   <g id="patch_7">
    <path d="M 60.568849 163.356562 
L 65.07794 163.356562 
L 65.07794 84.493584 
L 60.568849 84.493584 
z
" clip-path="url(#p0b1fc7234d)" style="fill: #2b9a9c; stroke: #ffffff; stroke-width: 0.3; stroke-linejoin: miter"/>
   </g>
   <g id="patch_8">
    <path d="M 65.07794 163.356562 
L 69.587031 163.356562 
L 69.587031 113.702094 
L 65.07794 113.702094 
z
" clip-path="url(#p0b1fc7234d)" style="fill: #2b9a9c; stroke: #ffffff; stroke-width: 0.3; stroke-linejoin: miter"/>
   </g>
   <g id="patch_9">
    <path d="M 69.587031 163.356562 
L 74.096122 163.356562 
L 74.096122 46.52252 
L 69.587031 46.52252 
z
" clip-path="url(#p0b1fc7234d)" style="fill: #2b9a9c; stroke: #ffffff; stroke-width: 0.3; stroke-linejoin: miter"/>
   </g>
   <g id="patch_10">
    <path d="M 74.096122 163.356562 
L 78.605213 163.356562 
L 78.605213 49.443371 
L 74.096122 49.443371 
z
" clip-path="url(#p0b1fc7234d)" style="fill: #2b9a9c; stroke: #ffffff; stroke-width: 0.3; stroke-linejoin: miter"/>
   </g>
   <g id="patch_11">
    <path d="M 78.605213 163.356562 
L 83.114304 163.356562 
L 83.114304 84.493584 
L 78.605213 84.493584 
z
" clip-path="url(#p0b1fc7234d)" style="fill: #2b9a9c; stroke: #ffffff; stroke-width: 0.3; stroke-linejoin: miter"/>
   </g>
   <g id="patch_12">
    <path d="M 83.114304 163.356562 
L 87.623395 163.356562 
L 87.623395 66.968477 
L 83.114304 66.968477 
z
" clip-path="url(#p0b1fc7234d)" style="fill: #2b9a9c; stroke: #ffffff; stroke-width: 0.3; stroke-linejoin: miter"/>
   </g>
   <g id="patch_13">
    <path d="M 87.623395 163.356562 
L 92.132486 163.356562 
L 92.132486 81.572733 
L 87.623395 81.572733 
z
" clip-path="url(#p0b1fc7234d)" style="fill: #2b9a9c; stroke: #ffffff; stroke-width: 0.3; stroke-linejoin: miter"/>
   </g>
   <g id="patch_14">
    <path d="M 92.132486 163.356562 
L 96.641577 163.356562 
L 96.641577 69.889328 
L 92.132486 69.889328 
z
" clip-path="url(#p0b1fc7234d)" style="fill: #2b9a9c; stroke: #ffffff; stroke-width: 0.3; stroke-linejoin: miter"/>
   </g>
   <g id="patch_15">
    <path d="M 96.641577 163.356562 
L 101.150668 163.356562 
L 101.150668 64.047626 
L 96.641577 64.047626 
z
" clip-path="url(#p0b1fc7234d)" style="fill: #2b9a9c; stroke: #ffffff; stroke-width: 0.3; stroke-linejoin: miter"/>
   </g>
   <g id="patch_16">
    <path d="M 101.150668 163.356562 
L 105.659759 163.356562 
L 105.659759 26.076562 
L 101.150668 26.076562 
z
" clip-path="url(#p0b1fc7234d)" style="fill: #2b9a9c; stroke: #ffffff; stroke-width: 0.3; stroke-linejoin: miter"/>
   </g>
   <g id="patch_17">
    <path d="M 105.659759 163.356562 
L 110.168849 163.356562 
L 110.168849 102.01869 
L 105.659759 102.01869 
z
" clip-path="url(#p0b1fc7234d)" style="fill: #2b9a9c; stroke: #ffffff; stroke-width: 0.3; stroke-linejoin: miter"/>
   </g>
   <g id="patch_18">
    <path d="M 110.168849 163.356562 
L 114.67794 163.356562 
L 114.67794 160.435711 
L 110.168849 160.435711 
z
" clip-path="url(#p0b1fc7234d)" style="fill: #2b9a9c; stroke: #ffffff; stroke-width: 0.3; stroke-linejoin: miter"/>
   </g>
   <g id="patch_19">
    <path d="M 114.67794 163.356562 
L 119.187031 163.356562 
L 119.187031 163.356562 
L 114.67794 163.356562 
z
" clip-path="url(#p0b1fc7234d)" style="fill: #2b9a9c; stroke: #ffffff; stroke-width: 0.3; stroke-linejoin: miter"/>
   </g>
   <g id="patch_20">
    <path d="M 119.187031 163.356562 
L 123.696122 163.356562 
L 123.696122 157.51486 
L 119.187031 157.51486 
z
" clip-path="url(#p0b1fc7234d)" style="fill: #2b9a9c; stroke: #ffffff; stroke-width: 0.3; stroke-linejoin: miter"/>
   </g>
   <g id="patch_21">
    <path d="M 123.696122 163.356562 
L 128.205213 163.356562 
L 128.205213 163.356562 
L 123.696122 163.356562 
z
" clip-path="url(#p0b1fc7234d)" style="fill: #2b9a9c; stroke: #ffffff; stroke-width: 0.3; stroke-linejoin: miter"/>
   </g>
   <g id="patch_22">
    <path d="M 128.205213 163.356562 
L 132.714304 163.356562 
L 132.714304 160.435711 
L 128.205213 160.435711 
z
" clip-path="url(#p0b1fc7234d)" style="fill: #2b9a9c; stroke: #ffffff; stroke-width: 0.3; stroke-linejoin: miter"/>
   </g>
   <g id="patch_23">
    <path d="M 132.714304 163.356562 
L 137.223395 163.356562 
L 137.223395 163.356562 
L 132.714304 163.356562 
z
" clip-path="url(#p0b1fc7234d)" style="fill: #2b9a9c; stroke: #ffffff; stroke-width: 0.3; stroke-linejoin: miter"/>
   </g>
   <g id="patch_24">
    <path d="M 137.223395 163.356562 
L 141.732486 163.356562 
L 141.732486 163.356562 
L 137.223395 163.356562 
z
" clip-path="url(#p0b1fc7234d)" style="fill: #2b9a9c; stroke: #ffffff; stroke-width: 0.3; stroke-linejoin: miter"/>
   </g>
   <g id="patch_25">
    <path d="M 141.732486 163.356562 
L 146.241577 163.356562 
L 146.241577 160.435711 
L 141.732486 160.435711 
z
" clip-path="url(#p0b1fc7234d)" style="fill: #2b9a9c; stroke: #ffffff; stroke-width: 0.3; stroke-linejoin: miter"/>
   </g>
   <g id="patch_26">
    <path d="M 146.241577 163.356562 
L 150.750668 163.356562 
L 150.750668 163.356562 
L 146.241577 163.356562 
z
" clip-path="url(#p0b1fc7234d)" style="fill: #2b9a9c; stroke: #ffffff; stroke-width: 0.3; stroke-linejoin: miter"/>
   </g>
   <g id="patch_27">
    <path d="M 150.750668 163.356562 
L 155.259759 163.356562 
L 155.259759 160.435711 
L 150.750668 160.435711 
z
" clip-path="url(#p0b1fc7234d)" style="fill: #2b9a9c; stroke: #ffffff; stroke-width: 0.3; stroke-linejoin: miter"/>
   </g>
   <g id="patch_28">
    <path d="M 155.259759 163.356562 
L 159.768849 163.356562 
L 159.768849 163.356562 
L 155.259759 163.356562 
z
" clip-path="url(#p0b1fc7234d)" style="fill: #2b9a9c; stroke: #ffffff; stroke-width: 0.3; stroke-linejoin: miter"/>
   </g>
   <g id="patch_29">
    <path d="M 159.768849 163.356562 
L 164.27794 163.356562 
L 164.27794 160.435711 
L 159.768849 160.435711 
z
" clip-path="url(#p0b1fc7234d)" style="fill: #2b9a9c; stroke: #ffffff; stroke-width: 0.3; stroke-linejoin: miter"/>
   </g>
   <g id="patch_30">
    <path d="M 164.27794 163.356562 
L 168.787031 163.356562 
L 168.787031 163.356562 
L 164.27794 163.356562 
z
" clip-path="url(#p0b1fc7234d)" style="fill: #2b9a9c; stroke: #ffffff; stroke-width: 0.3; stroke-linejoin: miter"/>
   </g>
   <g id="patch_31">
    <path d="M 168.787031 163.356562 
L 173.296122 163.356562 
L 173.296122 163.356562 
L 168.787031 163.356562 
z
" clip-path="url(#p0b1fc7234d)" style="fill: #2b9a9c; stroke: #ffffff; stroke-width: 0.3; stroke-linejoin: miter"/>
   </g>
   <g id="patch_32">
    <path d="M 173.296122 163.356562 
L 177.805213 163.356562 
L 177.805213 160.435711 
L 173.296122 160.435711 
z
" clip-path="url(#p0b1fc7234d)" style="fill: #2b9a9c; stroke: #ffffff; stroke-width: 0.3; stroke-linejoin: miter"/>
   </g>
   <g id="patch_33">
    <path d="M 177.805213 163.356562 
L 182.314304 163.356562 
L 182.314304 163.356562 
L 177.805213 163.356562 
z
" clip-path="url(#p0b1fc7234d)" style="fill: #2b9a9c; stroke: #ffffff; stroke-width: 0.3; stroke-linejoin: miter"/>
   </g>
   <g id="patch_34">
    <path d="M 182.314304 163.356562 
L 186.823395 163.356562 
L 186.823395 163.356562 
L 182.314304 163.356562 
z
" clip-path="url(#p0b1fc7234d)" style="fill: #2b9a9c; stroke: #ffffff; stroke-width: 0.3; stroke-linejoin: miter"/>
   </g>
   <g id="patch_35">
    <path d="M 186.823395 163.356562 
L 191.332486 163.356562 
L 191.332486 154.594009 
L 186.823395 154.594009 
z
" clip-path="url(#p0b1fc7234d)" style="fill: #2b9a9c; stroke: #ffffff; stroke-width: 0.3; stroke-linejoin: miter"/>
   </g>
   <g id="patch_36">
    <path d="M 191.332486 163.356562 
L 195.841577 163.356562 
L 195.841577 163.356562 
L 191.332486 163.356562 
z
" clip-path="url(#p0b1fc7234d)" style="fill: #2b9a9c; stroke: #ffffff; stroke-width: 0.3; stroke-linejoin: miter"/>
   </g>
   <g id="patch_37">
    <path d="M 195.841577 163.356562 
L 200.350668 163.356562 
L 200.350668 160.435711 
L 195.841577 160.435711 
z
" clip-path="url(#p0b1fc7234d)" style="fill: #2b9a9c; stroke: #ffffff; stroke-width: 0.3; stroke-linejoin: miter"/>
   </g>
   <g id="patch_38">
    <path d="M 200.350668 163.356562 
L 204.859759 163.356562 
L 204.859759 163.356562 
L 200.350668 163.356562 
z
" clip-path="url(#p0b1fc7234d)" style="fill: #2b9a9c; stroke: #ffffff; stroke-width: 0.3; stroke-linejoin: miter"/>
   </g>
   <g id="patch_39">
    <path d="M 204.859759 163.356562 
L 209.368849 163.356562 
L 209.368849 163.356562 
L 204.859759 163.356562 
z
" clip-path="url(#p0b1fc7234d)" style="fill: #2b9a9c; stroke: #ffffff; stroke-width: 0.3; stroke-linejoin: miter"/>
   </g>
   <g id="patch_40">
    <path d="M 209.368849 163.356562 
L 213.87794 163.356562 
L 213.87794 160.435711 
L 209.368849 160.435711 
z
" clip-path="url(#p0b1fc7234d)" style="fill: #2b9a9c; stroke: #ffffff; stroke-width: 0.3; stroke-linejoin: miter"/>
   </g>
   <g id="patch_41">
    <path d="M 213.87794 163.356562 
L 218.387031 163.356562 
L 218.387031 163.356562 
L 213.87794 163.356562 
z
" clip-path="url(#p0b1fc7234d)" style="fill: #2b9a9c; stroke: #ffffff; stroke-width: 0.3; stroke-linejoin: miter"/>
   </g>
   <g id="patch_42">
    <path d="M 218.387031 163.356562 
L 222.896122 163.356562 
L 222.896122 163.356562 
L 218.387031 163.356562 
z
" clip-path="url(#p0b1fc7234d)" style="fill: #2b9a9c; stroke: #ffffff; stroke-width: 0.3; stroke-linejoin: miter"/>
   </g>
   <g id="patch_43">
    <path d="M 222.896122 163.356562 
L 227.405213 163.356562 
L 227.405213 163.356562 
L 222.896122 163.356562 
z
" clip-path="url(#p0b1fc7234d)" style="fill: #2b9a9c; stroke: #ffffff; stroke-width: 0.3; stroke-linejoin: miter"/>
   </g>
   <g id="patch_44">
    <path d="M 227.405213 163.356562 
L 231.914304 163.356562 
L 231.914304 163.356562 
L 227.405213 163.356562 
z
" clip-path="url(#p0b1fc7234d)" style="fill: #2b9a9c; stroke: #ffffff; stroke-width: 0.3; stroke-linejoin: miter"/>
   </g>
   <g id="patch_45">
    <path d="M 231.914304 163.356562 
L 236.423395 163.356562 
L 236.423395 160.435711 
L 231.914304 160.435711 
z
" clip-path="url(#p0b1fc7234d)" style="fill: #2b9a9c; stroke: #ffffff; stroke-width: 0.3; stroke-linejoin: miter"/>
   </g>
   <g id="patch_46">
    <path d="M 236.423395 163.356562 
L 240.932486 163.356562 
L 240.932486 163.356562 
L 236.423395 163.356562 
z
" clip-path="url(#p0b1fc7234d)" style="fill: #2b9a9c; stroke: #ffffff; stroke-width: 0.3; stroke-linejoin: miter"/>
   </g>
   <g id="patch_47">
    <path d="M 240.932486 163.356562 
L 245.441577 163.356562 
L 245.441577 160.435711 
L 240.932486 160.435711 
z
" clip-path="url(#p0b1fc7234d)" style="fill: #2b9a9c; stroke: #ffffff; stroke-width: 0.3; stroke-linejoin: miter"/>
   </g>
   <g id="matplotlib.axis_1">
    <g id="xtick_1">
     <g id="line2d_1">
      <defs>
       <path id="me51e71851d" d="M 0 0 
L 0 3.5 
" style="stroke: #000000; stroke-width: 0.8"/>
      </defs>
      <g>
       <use xlink:href="#me51e71851d" x="41.635036" y="163.356562" style="stroke: #000000; stroke-width: 0.8"/>
      </g>
     </g>
     <g id="text_1">
      <text style="font-size: 7px; font-family: 'Arial', 'Helvetica', 'DejaVu Sans', sans-serif; text-anchor: middle" x="41.635036" y="175.367031" transform="rotate(-0 41.635036 175.367031)">0</text>
     </g>
    </g>
    <g id="xtick_2">
     <g id="line2d_2">
      <g>
       <use xlink:href="#me51e71851d" x="71.928552" y="163.356562" style="stroke: #000000; stroke-width: 0.8"/>
      </g>
     </g>
     <g id="text_2">
      <text style="font-size: 7px; font-family: 'Arial', 'Helvetica', 'DejaVu Sans', sans-serif; text-anchor: middle" x="71.928552" y="175.367031" transform="rotate(-0 71.928552 175.367031)">20</text>
     </g>
    </g>
    <g id="xtick_3">
     <g id="line2d_3">
      <g>
       <use xlink:href="#me51e71851d" x="102.222068" y="163.356562" style="stroke: #000000; stroke-width: 0.8"/>
      </g>
     </g>
     <g id="text_3">
      <text style="font-size: 7px; font-family: 'Arial', 'Helvetica', 'DejaVu Sans', sans-serif; text-anchor: middle" x="102.222068" y="175.367031" transform="rotate(-0 102.222068 175.367031)">40</text>
     </g>
    </g>
    <g id="xtick_4">
     <g id="line2d_4">
      <g>
       <use xlink:href="#me51e71851d" x="132.515584" y="163.356562" style="stroke: #000000; stroke-width: 0.8"/>
      </g>
     </g>
     <g id="text_4">
      <text style="font-size: 7px; font-family: 'Arial', 'Helvetica', 'DejaVu Sans', sans-serif; text-anchor: middle" x="132.515584" y="175.367031" transform="rotate(-0 132.515584 175.367031)">60</text>
     </g>
    </g>
    <g id="xtick_5">
     <g id="line2d_5">
      <g>
       <use xlink:href="#me51e71851d" x="162.809099" y="163.356562" style="stroke: #000000; stroke-width: 0.8"/>
      </g>
     </g>
     <g id="text_5">
      <text style="font-size: 7px; font-family: 'Arial', 'Helvetica', 'DejaVu Sans', sans-serif; text-anchor: middle" x="162.809099" y="175.367031" transform="rotate(-0 162.809099 175.367031)">80</text>
     </g>
    </g>
    <g id="xtick_6">
     <g id="line2d_6">
      <g>
       <use xlink:href="#me51e71851d" x="193.102615" y="163.356562" style="stroke: #000000; stroke-width: 0.8"/>
      </g>
     </g>
     <g id="text_6">
      <text style="font-size: 7px; font-family: 'Arial', 'Helvetica', 'DejaVu Sans', sans-serif; text-anchor: middle" x="193.102615" y="175.367031" transform="rotate(-0 193.102615 175.367031)">100</text>
     </g>
    </g>
    <g id="xtick_7">
     <g id="line2d_7">
      <g>
       <use xlink:href="#me51e71851d" x="223.396131" y="163.356562" style="stroke: #000000; stroke-width: 0.8"/>
      </g>
     </g>
     <g id="text_7">
      <text style="font-size: 7px; font-family: 'Arial', 'Helvetica', 'DejaVu Sans', sans-serif; text-anchor: middle" x="223.396131" y="175.367031" transform="rotate(-0 223.396131 175.367031)">120</text>
     </g>
    </g>
    <g id="xtick_8">
     <g id="line2d_8">
      <g>
       <use xlink:href="#me51e71851d" x="253.689647" y="163.356562" style="stroke: #000000; stroke-width: 0.8"/>
      </g>
     </g>
     <g id="text_8">
      <text style="font-size: 7px; font-family: 'Arial', 'Helvetica', 'DejaVu Sans', sans-serif; text-anchor: middle" x="253.689647" y="175.367031" transform="rotate(-0 253.689647 175.367031)">140</text>
     </g>
    </g>
    <g id="text_9">
     <text style="font-size: 7px; font-family: 'Arial', 'Helvetica', 'DejaVu Sans', sans-serif; text-anchor: middle" x="143.987031" y="185.76875" transform="rotate(-0 143.987031 185.76875)">Training-set standard deviation</text>
    </g>
   </g>
   <g id="matplotlib.axis_2">
    <g id="ytick_1">
     <g id="line2d_9">
      <defs>
       <path id="mf1d1123f1f" d="M 0 0 
L -3.5 0 
" style="stroke: #000000; stroke-width: 0.8"/>
      </defs>
      <g>
       <use xlink:href="#mf1d1123f1f" x="32.387031" y="163.356562" style="stroke: #000000; stroke-width: 0.8"/>
      </g>
     </g>
     <g id="text_10">
      <text style="font-size: 7px; font-family: 'Arial', 'Helvetica', 'DejaVu Sans', sans-serif; text-anchor: end" x="25.387031" y="165.861797" transform="rotate(-0 25.387031 165.861797)">0</text>
     </g>
    </g>
    <g id="ytick_2">
     <g id="line2d_10">
      <g>
       <use xlink:href="#mf1d1123f1f" x="32.387031" y="134.148052" style="stroke: #000000; stroke-width: 0.8"/>
      </g>
     </g>
     <g id="text_11">
      <text style="font-size: 7px; font-family: 'Arial', 'Helvetica', 'DejaVu Sans', sans-serif; text-anchor: end" x="25.387031" y="136.653286" transform="rotate(-0 25.387031 136.653286)">10</text>
     </g>
    </g>
    <g id="ytick_3">
     <g id="line2d_11">
      <g>
       <use xlink:href="#mf1d1123f1f" x="32.387031" y="104.939541" style="stroke: #000000; stroke-width: 0.8"/>
      </g>
     </g>
     <g id="text_12">
      <text style="font-size: 7px; font-family: 'Arial', 'Helvetica', 'DejaVu Sans', sans-serif; text-anchor: end" x="25.387031" y="107.444776" transform="rotate(-0 25.387031 107.444776)">20</text>
     </g>
    </g>
    <g id="ytick_4">
     <g id="line2d_12">
      <g>
       <use xlink:href="#mf1d1123f1f" x="32.387031" y="75.731031" style="stroke: #000000; stroke-width: 0.8"/>
      </g>
     </g>
     <g id="text_13">
      <text style="font-size: 7px; font-family: 'Arial', 'Helvetica', 'DejaVu Sans', sans-serif; text-anchor: end" x="25.387031" y="78.236265" transform="rotate(-0 25.387031 78.236265)">30</text>
     </g>
    </g>
    <g id="ytick_5">
     <g id="line2d_13">
      <g>
       <use xlink:href="#mf1d1123f1f" x="32.387031" y="46.52252" style="stroke: #000000; stroke-width: 0.8"/>
      </g>
     </g>
     <g id="text_14">
      <text style="font-size: 7px; font-family: 'Arial', 'Helvetica', 'DejaVu Sans', sans-serif; text-anchor: end" x="25.387031" y="49.027754" transform="rotate(-0 25.387031 49.027754)">40</text>
     </g>
    </g>
    <g id="text_15">
     <text style="font-size: 7px; font-family: 'Arial', 'Helvetica', 'DejaVu Sans', sans-serif; text-anchor: middle" x="12.210469" y="91.284562" transform="rotate(-90 12.210469 91.284562)">Features</text>
    </g>
   </g>
   <g id="patch_48">
    <path d="M 32.387031 163.356562 
L 32.387031 19.212562 
" style="fill: none; stroke: #000000; stroke-width: 0.8; stroke-linejoin: miter; stroke-linecap: square"/>
   </g>
   <g id="patch_49">
    <path d="M 32.387031 163.356562 
L 255.587031 163.356562 
" style="fill: none; stroke: #000000; stroke-width: 0.8; stroke-linejoin: miter; stroke-linecap: square"/>
   </g>
   <g id="text_16">
    <text style="font-weight: 700; font-size: 8.4px; font-family: 'Arial', 'Helvetica', 'DejaVu Sans', sans-serif; text-anchor: start" x="32.387031" y="13.212562" transform="rotate(-0 32.387031 13.212562)">Distribution of feature standard deviations</text>
   </g>
  </g>
 </g>
 <defs>
  <clipPath id="p0b1fc7234d">
   <rect x="32.387031" y="19.212562" width="223.2" height="144.144"/>
  </clipPath>
 </defs>
</svg>
