<?xml version="1.0" encoding="utf-8" standalone="no"?>
<!DOCTYPE svg PUBLIC "-//W3C//DTD SVG 1.1//EN"
  "http://www.w3.org/Graphics/SVG/1.1/DTD/svg11.dtd">
<svg xmlns:xlink="http://www.w3.org/1999/xlink" width="514.311719pt" height="220.024756pt" viewBox="0 0 514.311719 220.024756" xmlns="http://www.w3.org/2000/svg" version="1.1">
 <metadata>
  <rdf:RDF xmlns:dc="http://purl.org/dc/elements/1.1/" xmlns:cc="http://creativecommons.org/ns#" xmlns:rdf="http://www.w3.org/1999/02/22-rdf-syntax-ns#">
   <cc:Work>
    <dc:type rdf:resource="http://purl.org/dc/dcmitype/StillImage"/>
    <dc:date>2026-06-07T18:59:23.479739</dc:date>
    <dc:format>image/svg+xml</dc:format>
    <dc:creator>
     <cc:Agent>
      <dc:title>Matplotlib v3.10.8, https://matplotlib.org/</dc:title>
     </cc:Agent>
    </dc:creator>
   </cc:Work>
  </rdf:RDF>
 </metadata>
 <defs>
  <style type="text/css">*{stroke-linejoin: round; stroke-linecap: butt}</style>
 </defs>
 <g id="figure_1">
  <g id="patch_1">
   <path d="M 0 220.024756 
L 514.311719 220.024756 
L 514.311719 0 
L 0 0 
z
" style="fill: #ffffff"/>
  </g>
  <g id="axes_1">
   <g id="patch_2">
    <path d="M 38.391719 186.727725 
L 251.446264 186.727725 
L 251.446264 20.407725 
L 38.391719 20.407725 
z
" style="fill: #ffffff"/>
   </g>
   <g id="matplotlib.axis_1">
    <g id="xtick_1">
     <g id="line2d_1">
      <defs>
       <path id="mdc249e102d" d="M 0 0 
L 0 3.5 
" style="stroke: #000000; stroke-width: 0.8"/>
      </defs>
      <g>
       <use xlink:href="#mdc249e102d" x="77.228657" y="186.727725" style="stroke: #000000; stroke-width: 0.8"/>
      </g>
     </g>
     <g id="text_1">
      <!-- $\mathdefault{10^{1}}$ -->
      <g transform="translate(71.733657 200.946475)">
       <text>
        <tspan x="0" y="-0.599563" style="font-size: 7px; font-family: 'Arial'">1</tspan>
        <tspan x="3.893066" y="-0.599563" style="font-size: 7px; font-family: 'Arial'">0</tspan>
        <tspan x="7.908097" y="-5.478125" style="font-size: 4.9px; font-family: 'Arial'">1</tspan>
       </text>
      </g>
     </g>
    </g>
    <g id="xtick_2">
     <g id="line2d_2">
      <g>
       <use xlink:href="#mdc249e102d" x="174.071632" y="186.727725" style="stroke: #000000; stroke-width: 0.8"/>
      </g>
     </g>
     <g id="text_2">
      <!-- $\mathdefault{10^{2}}$ -->
      <g transform="translate(168.576632 200.946475)">
       <text>
        <tspan x="0" y="-0.599563" style="font-size: 7px; font-family: 'Arial'">1</tspan>
        <tspan x="3.893066" y="-0.599563" style="font-size: 7px; font-family: 'Arial'">0</tspan>
        <tspan x="7.908097" y="-5.478125" style="font-size: 4.9px; font-family: 'Arial'">2</tspan>
       </text>
      </g>
     </g>
    </g>
    <g id="xtick_3">
     <g id="line2d_3">
      <defs>
       <path id="mcbfa9a0144" d="M 0 0 
L 0 2 
" style="stroke: #000000; stroke-width: 0.6"/>
      </defs>
      <g>
       <use xlink:href="#mcbfa9a0144" x="38.690962" y="186.727725" style="stroke: #000000; stroke-width: 0.6"/>
      </g>
     </g>
    </g>
    <g id="xtick_4">
     <g id="line2d_4">
      <g>
       <use xlink:href="#mcbfa9a0144" x="48.076016" y="186.727725" style="stroke: #000000; stroke-width: 0.6"/>
      </g>
     </g>
    </g>
    <g id="xtick_5">
     <g id="line2d_5">
      <g>
       <use xlink:href="#mcbfa9a0144" x="55.744164" y="186.727725" style="stroke: #000000; stroke-width: 0.6"/>
      </g>
     </g>
    </g>
    <g id="xtick_6">
     <g id="line2d_6">
      <g>
       <use xlink:href="#mcbfa9a0144" x="62.22749" y="186.727725" style="stroke: #000000; stroke-width: 0.6"/>
      </g>
     </g>
    </g>
    <g id="xtick_7">
     <g id="line2d_7">
      <g>
       <use xlink:href="#mcbfa9a0144" x="67.843603" y="186.727725" style="stroke: #000000; stroke-width: 0.6"/>
      </g>
     </g>
    </g>
    <g id="xtick_8">
     <g id="line2d_8">
      <g>
       <use xlink:href="#mcbfa9a0144" x="72.797365" y="186.727725" style="stroke: #000000; stroke-width: 0.6"/>
      </g>
     </g>
    </g>
    <g id="xtick_9">
     <g id="line2d_9">
      <g>
       <use xlink:href="#mcbfa9a0144" x="106.381297" y="186.727725" style="stroke: #000000; stroke-width: 0.6"/>
      </g>
     </g>
    </g>
    <g id="xtick_10">
     <g id="line2d_10">
      <g>
       <use xlink:href="#mcbfa9a0144" x="123.434499" y="186.727725" style="stroke: #000000; stroke-width: 0.6"/>
      </g>
     </g>
    </g>
    <g id="xtick_11">
     <g id="line2d_11">
      <g>
       <use xlink:href="#mcbfa9a0144" x="135.533937" y="186.727725" style="stroke: #000000; stroke-width: 0.6"/>
      </g>
     </g>
    </g>
    <g id="xtick_12">
     <g id="line2d_12">
      <g>
       <use xlink:href="#mcbfa9a0144" x="144.918991" y="186.727725" style="stroke: #000000; stroke-width: 0.6"/>
      </g>
     </g>
    </g>
    <g id="xtick_13">
     <g id="line2d_13">
      <g>
       <use xlink:href="#mcbfa9a0144" x="152.587139" y="186.727725" style="stroke: #000000; stroke-width: 0.6"/>
      </g>
     </g>
    </g>
    <g id="xtick_14">
     <g id="line2d_14">
      <g>
       <use xlink:href="#mcbfa9a0144" x="159.070465" y="186.727725" style="stroke: #000000; stroke-width: 0.6"/>
      </g>
     </g>
    </g>
    <g id="xtick_15">
     <g id="line2d_15">
      <g>
       <use xlink:href="#mcbfa9a0144" x="164.686578" y="186.727725" style="stroke: #000000; stroke-width: 0.6"/>
      </g>
     </g>
    </g>
    <g id="xtick_16">
     <g id="line2d_16">
      <g>
       <use xlink:href="#mcbfa9a0144" x="169.64034" y="186.727725" style="stroke: #000000; stroke-width: 0.6"/>
      </g>
     </g>
    </g>
    <g id="xtick_17">
     <g id="line2d_17">
      <g>
       <use xlink:href="#mcbfa9a0144" x="203.224272" y="186.727725" style="stroke: #000000; stroke-width: 0.6"/>
      </g>
     </g>
    </g>
    <g id="xtick_18">
     <g id="line2d_18">
      <g>
       <use xlink:href="#mcbfa9a0144" x="220.277474" y="186.727725" style="stroke: #000000; stroke-width: 0.6"/>
      </g>
     </g>
    </g>
    <g id="xtick_19">
     <g id="line2d_19">
      <g>
       <use xlink:href="#mcbfa9a0144" x="232.376913" y="186.727725" style="stroke: #000000; stroke-width: 0.6"/>
      </g>
     </g>
    </g>
    <g id="xtick_20">
     <g id="line2d_20">
      <g>
       <use xlink:href="#mcbfa9a0144" x="241.761967" y="186.727725" style="stroke: #000000; stroke-width: 0.6"/>
      </g>
     </g>
    </g>
    <g id="xtick_21">
     <g id="line2d_21">
      <g>
       <use xlink:href="#mcbfa9a0144" x="249.430114" y="186.727725" style="stroke: #000000; stroke-width: 0.6"/>
      </g>
     </g>
    </g>
    <g id="text_3">
     <text style="font-size: 7px; font-family: 'Arial', 'Helvetica', 'DejaVu Sans', sans-serif; text-anchor: middle" x="144.918991" y="211.433506" transform="rotate(-0 144.918991 211.433506)">Top-k selected features</text>
    </g>
   </g>
   <g id="matplotlib.axis_2">
    <g id="ytick_1">
     <g id="line2d_22">
      <defs>
       <path id="m9fdc4d1770" d="M 0 0 
L -3.5 0 
" style="stroke: #000000; stroke-width: 0.8"/>
      </defs>
      <g>
       <use xlink:href="#m9fdc4d1770" x="38.391719" y="168.221119" style="stroke: #000000; stroke-width: 0.8"/>
      </g>
     </g>
     <g id="text_4">
      <text style="font-size: 7px; font-family: 'Arial', 'Helvetica', 'DejaVu Sans', sans-serif; text-anchor: end" x="31.391719" y="170.726353" transform="rotate(-0 31.391719 170.726353)">0.55</text>
     </g>
    </g>
    <g id="ytick_2">
     <g id="line2d_23">
      <g>
       <use xlink:href="#m9fdc4d1770" x="38.391719" y="147.696232" style="stroke: #000000; stroke-width: 0.8"/>
      </g>
     </g>
     <g id="text_5">
      <text style="font-size: 7px; font-family: 'Arial', 'Helvetica', 'DejaVu Sans', sans-serif; text-anchor: end" x="31.391719" y="150.201466" transform="rotate(-0 31.391719 150.201466)">0.60</text>
     </g>
    </g>
    <g id="ytick_3">
     <g id="line2d_24">
      <g>
       <use xlink:href="#m9fdc4d1770" x="38.391719" y="127.171345" style="stroke: #000000; stroke-width: 0.8"/>
      </g>
     </g>
     <g id="text_6">
      <text style="font-size: 7px; font-family: 'Arial', 'Helvetica', 'DejaVu Sans', sans-serif; text-anchor: end" x="31.391719" y="129.676579" transform="rotate(-0 31.391719 129.676579)">0.65</text>
     </g>
    </g>
    <g id="ytick_4">
     <g id="line2d_25">
      <g>
       <use xlink:href="#m9fdc4d1770" x="38.391719" y="106.646458" style="stroke: #000000; stroke-width: 0.8"/>
      </g>
     </g>
     <g id="text_7">
      <text style="font-size: 7px; font-family: 'Arial', 'Helvetica', 'DejaVu Sans', sans-serif; text-anchor: end" x="31.391719" y="109.151692" transform="rotate(-0 31.391719 109.151692)">0.70</text>
     </g>
    </g>
    <g id="ytick_5">
     <g id="line2d_26">
      <g>
       <use xlink:href="#m9fdc4d1770" x="38.391719" y="86.121571" style="stroke: #000000; stroke-width: 0.8"/>
      </g>
     </g>
     <g id="text_8">
      <text style="font-size: 7px; font-family: 'Arial', 'Helvetica', 'DejaVu Sans', sans-serif; text-anchor: end" x="31.391719" y="88.626806" transform="rotate(-0 31.391719 88.626806)">0.75</text>
     </g>
    </g>
    <g id="ytick_6">
     <g id="line2d_27">
      <g>
       <use xlink:href="#m9fdc4d1770" x="38.391719" y="65.596684" style="stroke: #000000; stroke-width: 0.8"/>
      </g>
     </g>
     <g id="text_9">
      <text style="font-size: 7px; font-family: 'Arial', 'Helvetica', 'DejaVu Sans', sans-serif; text-anchor: end" x="31.391719" y="68.101919" transform="rotate(-0 31.391719 68.101919)">0.80</text>
     </g>
    </g>
    <g id="ytick_7">
     <g id="line2d_28">
      <g>
       <use xlink:href="#m9fdc4d1770" x="38.391719" y="45.071797" style="stroke: #000000; stroke-width: 0.8"/>
      </g>
     </g>
     <g id="text_10">
      <text style="font-size: 7px; font-family: 'Arial', 'Helvetica', 'DejaVu Sans', sans-serif; text-anchor: end" x="31.391719" y="47.577032" transform="rotate(-0 31.391719 47.577032)">0.85</text>
     </g>
    </g>
    <g id="ytick_8">
     <g id="line2d_29">
      <g>
       <use xlink:href="#m9fdc4d1770" x="38.391719" y="24.546911" style="stroke: #000000; stroke-width: 0.8"/>
      </g>
     </g>
     <g id="text_11">
      <text style="font-size: 7px; font-family: 'Arial', 'Helvetica', 'DejaVu Sans', sans-serif; text-anchor: end" x="31.391719" y="27.052145" transform="rotate(-0 31.391719 27.052145)">0.90</text>
     </g>
    </g>
    <g id="text_12">
     <text style="font-size: 7px; font-family: 'Arial', 'Helvetica', 'DejaVu Sans', sans-serif; text-anchor: middle" x="12.295781" y="103.567725" transform="rotate(-90 12.295781 103.567725)">Best accuracy across classifiers</text>
    </g>
   </g>
   <g id="line2d_30">
    <path d="M 48.076016 101.173155 
L 77.228657 40.96682 
L 106.381297 40.96682 
L 144.918991 65.596684 
L 174.071632 82.016594 
L 203.224272 87.489897 
L 241.761967 84.069082 
" clip-path="url(#p09bc1ba008)" style="fill: none; stroke: #1f77b4; stroke-linecap: square"/>
    <defs>
     <path id="m12b67e674f" d="M 0 3 
C 0.795609 3 1.55874 2.683901 2.12132 2.12132 
C 2.683901 1.55874 3 0.795609 3 0 
C 3 -0.795609 2.683901 -1.55874 2.12132 -2.12132 
C 1.55874 -2.683901 0.795609 -3 0 -3 
C -0.795609 -3 -1.55874 -2.683901 -2.12132 -2.12132 
C -2.683901 -1.55874 -3 -0.795609 -3 0 
C -3 0.795609 -2.683901 1.55874 -2.12132 2.12132 
C -1.55874 2.683901 -0.795609 3 0 3 
z
" style="stroke: #1f77b4"/>
    </defs>
    <g clip-path="url(#p09bc1ba008)">
     <use xlink:href="#m12b67e674f" x="48.076016" y="101.173155" style="fill: #1f77b4; stroke: #1f77b4"/>
     <use xlink:href="#m12b67e674f" x="77.228657" y="40.96682" style="fill: #1f77b4; stroke: #1f77b4"/>
     <use xlink:href="#m12b67e674f" x="106.381297" y="40.96682" style="fill: #1f77b4; stroke: #1f77b4"/>
     <use xlink:href="#m12b67e674f" x="144.918991" y="65.596684" style="fill: #1f77b4; stroke: #1f77b4"/>
     <use xlink:href="#m12b67e674f" x="174.071632" y="82.016594" style="fill: #1f77b4; stroke: #1f77b4"/>
     <use xlink:href="#m12b67e674f" x="203.224272" y="87.489897" style="fill: #1f77b4; stroke: #1f77b4"/>
     <use xlink:href="#m12b67e674f" x="241.761967" y="84.069082" style="fill: #1f77b4; stroke: #1f77b4"/>
    </g>
   </g>
   <g id="line2d_31">
    <path d="M 48.076016 140.17044 
L 77.228657 146.327906 
L 106.381297 141.538766 
L 144.918991 146.327906 
L 174.071632 140.854603 
L 203.224272 114.17225 
L 241.761967 84.069082 
" clip-path="url(#p09bc1ba008)" style="fill: none; stroke: #ff7f0e; stroke-linecap: square"/>
    <defs>
     <path id="m13ae7b579f" d="M 0 3 
C 0.795609 3 1.55874 2.683901 2.12132 2.12132 
C 2.683901 1.55874 3 0.795609 3 0 
C 3 -0.795609 2.683901 -1.55874 2.12132 -2.12132 
C 1.55874 -2.683901 0.795609 -3 0 -3 
C -0.795609 -3 -1.55874 -2.683901 -2.12132 -2.12132 
C -2.683901 -1.55874 -3 -0.795609 -3 0 
C -3 0.795609 -2.683901 1.55874 -2.12132 2.12132 
C -1.55874 2.683901 -0.795609 3 0 3 
z
" style="stroke: #ff7f0e"/>
    </defs>
    <g clip-path="url(#p09bc1ba008)">
     <use xlink:href="#m13ae7b579f" x="48.076016" y="140.17044" style="fill: #ff7f0e; stroke: #ff7f0e"/>
     <use xlink:href="#m13ae7b579f" x="77.228657" y="146.327906" style="fill: #ff7f0e; stroke: #ff7f0e"/>
     <use xlink:href="#m13ae7b579f" x="106.381297" y="141.538766" style="fill: #ff7f0e; stroke: #ff7f0e"/>
     <use xlink:href="#m13ae7b579f" x="144.918991" y="146.327906" style="fill: #ff7f0e; stroke: #ff7f0e"/>
     <use xlink:href="#m13ae7b579f" x="174.071632" y="140.854603" style="fill: #ff7f0e; stroke: #ff7f0e"/>
     <use xlink:href="#m13ae7b579f" x="203.224272" y="114.17225" style="fill: #ff7f0e; stroke: #ff7f0e"/>
     <use xlink:href="#m13ae7b579f" x="241.761967" y="84.069082" style="fill: #ff7f0e; stroke: #ff7f0e"/>
    </g>
   </g>
   <g id="line2d_32">
    <path d="M 48.076016 96.384015 
L 77.228657 99.804829 
L 106.381297 96.384015 
L 144.918991 79.279942 
L 174.071632 90.226549 
L 203.224272 92.279037 
L 241.761967 84.069082 
" clip-path="url(#p09bc1ba008)" style="fill: none; stroke: #2ca02c; stroke-linecap: square"/>
    <defs>
     <path id="m30f7da73a9" d="M 0 3 
C 0.795609 3 1.55874 2.683901 2.12132 2.12132 
C 2.683901 1.55874 3 0.795609 3 0 
C 3 -0.795609 2.683901 -1.55874 2.12132 -2.12132 
C 1.55874 -2.683901 0.795609 -3 0 -3 
C -0.795609 -3 -1.55874 -2.683901 -2.12132 -2.12132 
C -2.683901 -1.55874 -3 -0.795609 -3 0 
C -3 0.795609 -2.683901 1.55874 -2.12132 2.12132 
C -1.55874 2.683901 -0.795609 3 0 3 
z
" style="stroke: #2ca02c"/>
    </defs>
    <g clip-path="url(#p09bc1ba008)">
     <use xlink:href="#m30f7da73a9" x="48.076016" y="96.384015" style="fill: #2ca02c; stroke: #2ca02c"/>
     <use xlink:href="#m30f7da73a9" x="77.228657" y="99.804829" style="fill: #2ca02c; stroke: #2ca02c"/>
     <use xlink:href="#m30f7da73a9" x="106.381297" y="96.384015" style="fill: #2ca02c; stroke: #2ca02c"/>
     <use xlink:href="#m30f7da73a9" x="144.918991" y="79.279942" style="fill: #2ca02c; stroke: #2ca02c"/>
     <use xlink:href="#m30f7da73a9" x="174.071632" y="90.226549" style="fill: #2ca02c; stroke: #2ca02c"/>
     <use xlink:href="#m30f7da73a9" x="203.224272" y="92.279037" style="fill: #2ca02c; stroke: #2ca02c"/>
     <use xlink:href="#m30f7da73a9" x="241.761967" y="84.069082" style="fill: #2ca02c; stroke: #2ca02c"/>
    </g>
   </g>
   <g id="line2d_33">
    <path d="M 48.076016 50.545101 
L 77.228657 29.336051 
L 106.381297 30.704377 
L 144.918991 40.96682 
L 174.071632 57.38673 
L 203.224272 71.069987 
L 241.761967 83.38492 
" clip-path="url(#p09bc1ba008)" style="fill: none; stroke: #d62728; stroke-linecap: square"/>
    <defs>
     <path id="mdb223ab906" d="M 0 3 
C 0.795609 3 1.55874 2.683901 2.12132 2.12132 
C 2.683901 1.55874 3 0.795609 3 0 
C 3 -0.795609 2.683901 -1.55874 2.12132 -2.12132 
C 1.55874 -2.683901 0.795609 -3 0 -3 
C -0.795609 -3 -1.55874 -2.683901 -2.12132 -2.12132 
C -2.683901 -1.55874 -3 -0.795609 -3 0 
C -3 0.795609 -2.683901 1.55874 -2.12132 2.12132 
C -1.55874 2.683901 -0.795609 3 0 3 
z
" style="stroke: #d62728"/>
    </defs>
    <g clip-path="url(#p09bc1ba008)">
     <use xlink:href="#mdb223ab906" x="48.076016" y="50.545101" style="fill: #d62728; stroke: #d62728"/>
     <use xlink:href="#mdb223ab906" x="77.228657" y="29.336051" style="fill: #d62728; stroke: #d62728"/>
     <use xlink:href="#mdb223ab906" x="106.381297" y="30.704377" style="fill: #d62728; stroke: #d62728"/>
     <use xlink:href="#mdb223ab906" x="144.918991" y="40.96682" style="fill: #d62728; stroke: #d62728"/>
     <use xlink:href="#mdb223ab906" x="174.071632" y="57.38673" style="fill: #d62728; stroke: #d62728"/>
     <use xlink:href="#mdb223ab906" x="203.224272" y="71.069987" style="fill: #d62728; stroke: #d62728"/>
     <use xlink:href="#mdb223ab906" x="241.761967" y="83.38492" style="fill: #d62728; stroke: #d62728"/>
    </g>
   </g>
   <g id="line2d_34">
    <path d="M 48.076016 179.167725 
L 77.228657 127.855508 
L 106.381297 96.384015 
L 144.918991 46.440123 
L 174.071632 60.123381 
L 203.224272 82.016594 
L 241.761967 82.700757 
" clip-path="url(#p09bc1ba008)" style="fill: none; stroke: #9467bd; stroke-linecap: square"/>
    <defs>
     <path id="md3d6242ae3" d="M 0 3 
C 0.795609 3 1.55874 2.683901 2.12132 2.12132 
C 2.683901 1.55874 3 0.795609 3 0 
C 3 -0.795609 2.683901 -1.55874 2.12132 -2.12132 
C 1.55874 -2.683901 0.795609 -3 0 -3 
C -0.795609 -3 -1.55874 -2.683901 -2.12132 -2.12132 
C -2.683901 -1.55874 -3 -0.795609 -3 0 
C -3 0.795609 -2.683901 1.55874 -2.12132 2.12132 
C -1.55874 2.683901 -0.795609 3 0 3 
z
" style="stroke: #9467bd"/>
    </defs>
    <g clip-path="url(#p09bc1ba008)">
     <use xlink:href="#md3d6242ae3" x="48.076016" y="179.167725" style="fill: #9467bd; stroke: #9467bd"/>
     <use xlink:href="#md3d6242ae3" x="77.228657" y="127.855508" style="fill: #9467bd; stroke: #9467bd"/>
     <use xlink:href="#md3d6242ae3" x="106.381297" y="96.384015" style="fill: #9467bd; stroke: #9467bd"/>
     <use xlink:href="#md3d6242ae3" x="144.918991" y="46.440123" style="fill: #9467bd; stroke: #9467bd"/>
     <use xlink:href="#md3d6242ae3" x="174.071632" y="60.123381" style="fill: #9467bd; stroke: #9467bd"/>
     <use xlink:href="#md3d6242ae3" x="203.224272" y="82.016594" style="fill: #9467bd; stroke: #9467bd"/>
     <use xlink:href="#md3d6242ae3" x="241.761967" y="82.700757" style="fill: #9467bd; stroke: #9467bd"/>
    </g>
   </g>
   <g id="line2d_35">
    <path d="M 48.076016 65.596684 
L 77.228657 38.914331 
L 106.381297 27.967725 
L 144.918991 40.282657 
L 174.071632 52.597589 
L 203.224272 69.701662 
L 241.761967 82.700757 
" clip-path="url(#p09bc1ba008)" style="fill: none; stroke: #8c564b; stroke-linecap: square"/>
    <defs>
     <path id="m215de72eb4" d="M 0 3 
C 0.795609 3 1.55874 2.683901 2.12132 2.12132 
C 2.683901 1.55874 3 0.795609 3 0 
C 3 -0.795609 2.683901 -1.55874 2.12132 -2.12132 
C 1.55874 -2.683901 0.795609 -3 0 -3 
C -0.795609 -3 -1.55874 -2.683901 -2.12132 -2.12132 
C -2.683901 -1.55874 -3 -0.795609 -3 0 
C -3 0.795609 -2.683901 1.55874 -2.12132 2.12132 
C -1.55874 2.683901 -0.795609 3 0 3 
z
" style="stroke: #8c564b"/>
    </defs>
    <g clip-path="url(#p09bc1ba008)">
     <use xlink:href="#m215de72eb4" x="48.076016" y="65.596684" style="fill: #8c564b; stroke: #8c564b"/>
     <use xlink:href="#m215de72eb4" x="77.228657" y="38.914331" style="fill: #8c564b; stroke: #8c564b"/>
     <use xlink:href="#m215de72eb4" x="106.381297" y="27.967725" style="fill: #8c564b; stroke: #8c564b"/>
     <use xlink:href="#m215de72eb4" x="144.918991" y="40.282657" style="fill: #8c564b; stroke: #8c564b"/>
     <use xlink:href="#m215de72eb4" x="174.071632" y="52.597589" style="fill: #8c564b; stroke: #8c564b"/>
     <use xlink:href="#m215de72eb4" x="203.224272" y="69.701662" style="fill: #8c564b; stroke: #8c564b"/>
     <use xlink:href="#m215de72eb4" x="241.761967" y="82.700757" style="fill: #8c564b; stroke: #8c564b"/>
    </g>
   </g>
   <g id="patch_3">
    <path d="M 38.391719 186.727725 
L 38.391719 20.407725 
" style="fill: none; stroke: #000000; stroke-width: 0.8; stroke-linejoin: miter; stroke-linecap: square"/>
   </g>
   <g id="patch_4">
    <path d="M 38.391719 186.727725 
L 251.446264 186.727725 
" style="fill: none; stroke: #000000; stroke-width: 0.8; stroke-linejoin: miter; stroke-linecap: square"/>
   </g>
   <g id="text_13">
    <text style="font-weight: 700; font-size: 9px; font-family: 'Arial', 'Helvetica', 'DejaVu Sans', sans-serif; text-anchor: start" x="21.347355" y="13.642031" transform="rotate(-0 21.347355 13.642031)">a</text>
   </g>
   <g id="text_14">
    <text style="font-weight: 700; font-size: 8.4px; font-family: 'Arial', 'Helvetica', 'DejaVu Sans', sans-serif; text-anchor: start" x="38.391719" y="14.407725" transform="rotate(-0 38.391719 14.407725)">Feature selection improves the noise tradeoff</text>
   </g>
   <g id="legend_1">
    <g id="line2d_36">
     <path d="M 114.185327 165.265225 
L 119.185327 165.265225 
L 124.185327 165.265225 
" style="fill: none; stroke: #1f77b4; stroke-linecap: square"/>
     <g>
      <use xlink:href="#m12b67e674f" x="119.185327" y="165.265225" style="fill: #1f77b4; stroke: #1f77b4"/>
     </g>
    </g>
    <g id="text_15">
     <text style="font-size: 5px; font-family: 'Arial', 'Helvetica', 'DejaVu Sans', sans-serif; text-anchor: start" x="128.185327" y="167.015225" transform="rotate(-0 128.185327 167.015225)">ANOVA F-test</text>
    </g>
    <g id="line2d_37">
     <path d="M 114.185327 172.352725 
L 119.185327 172.352725 
L 124.185327 172.352725 
" style="fill: none; stroke: #ff7f0e; stroke-linecap: square"/>
     <g>
      <use xlink:href="#m13ae7b579f" x="119.185327" y="172.352725" style="fill: #ff7f0e; stroke: #ff7f0e"/>
     </g>
    </g>
    <g id="text_16">
     <text style="font-size: 5px; font-family: 'Arial', 'Helvetica', 'DejaVu Sans', sans-serif; text-anchor: start" x="128.185327" y="174.102725" transform="rotate(-0 128.185327 174.102725)">L1 Logistic</text>
    </g>
    <g id="line2d_38">
     <path d="M 114.185327 179.483975 
L 119.185327 179.483975 
L 124.185327 179.483975 
" style="fill: none; stroke: #2ca02c; stroke-linecap: square"/>
     <g>
      <use xlink:href="#m30f7da73a9" x="119.185327" y="179.483975" style="fill: #2ca02c; stroke: #2ca02c"/>
     </g>
    </g>
    <g id="text_17">
     <text style="font-size: 5px; font-family: 'Arial', 'Helvetica', 'DejaVu Sans', sans-serif; text-anchor: start" x="128.185327" y="181.233975" transform="rotate(-0 128.185327 181.233975)">Mutual Information</text>
    </g>
    <g id="line2d_39">
     <path d="M 179.590795 165.265225 
L 184.590795 165.265225 
L 189.590795 165.265225 
" style="fill: none; stroke: #d62728; stroke-linecap: square"/>
     <g>
      <use xlink:href="#mdb223ab906" x="184.590795" y="165.265225" style="fill: #d62728; stroke: #d62728"/>
     </g>
    </g>
    <g id="text_18">
     <text style="font-size: 5px; font-family: 'Arial', 'Helvetica', 'DejaVu Sans', sans-serif; text-anchor: start" x="193.590795" y="167.015225" transform="rotate(-0 193.590795 167.015225)">Permutation Importance</text>
    </g>
    <g id="line2d_40">
     <path d="M 179.590795 172.337881 
L 184.590795 172.337881 
L 189.590795 172.337881 
" style="fill: none; stroke: #9467bd; stroke-linecap: square"/>
     <g>
      <use xlink:href="#md3d6242ae3" x="184.590795" y="172.337881" style="fill: #9467bd; stroke: #9467bd"/>
     </g>
    </g>
    <g id="text_19">
     <text style="font-size: 5px; font-family: 'Arial', 'Helvetica', 'DejaVu Sans', sans-serif; text-anchor: start" x="193.590795" y="174.087881" transform="rotate(-0 193.590795 174.087881)">RFE</text>
    </g>
    <g id="line2d_41">
     <path d="M 179.590795 179.410538 
L 184.590795 179.410538 
L 189.590795 179.410538 
" style="fill: none; stroke: #8c564b; stroke-linecap: square"/>
     <g>
      <use xlink:href="#m215de72eb4" x="184.590795" y="179.410538" style="fill: #8c564b; stroke: #8c564b"/>
     </g>
    </g>
    <g id="text_20">
     <text style="font-size: 5px; font-family: 'Arial', 'Helvetica', 'DejaVu Sans', sans-serif; text-anchor: start" x="193.590795" y="181.160538" transform="rotate(-0 193.590795 181.160538)">Random Forest</text>
    </g>
   </g>
  </g>
  <g id="axes_2">
   <g id="patch_5">
    <path d="M 294.057173 186.727725 
L 507.111719 186.727725 
L 507.111719 20.407725 
L 294.057173 20.407725 
z
" style="fill: #ffffff"/>
   </g>
   <g id="matplotlib.axis_3">
    <g id="xtick_22">
     <g id="line2d_42">
      <g>
       <use xlink:href="#mdc249e102d" x="332.894111" y="186.727725" style="stroke: #000000; stroke-width: 0.8"/>
      </g>
     </g>
     <g id="text_21">
      <!-- $\mathdefault{10^{1}}$ -->
      <g transform="translate(327.399111 200.946475)">
       <text>
        <tspan x="0" y="-0.599563" style="font-size: 7px; font-family: 'Arial'">1</tspan>
        <tspan x="3.893066" y="-0.599563" style="font-size: 7px; font-family: 'Arial'">0</tspan>
        <tspan x="7.908097" y="-5.478125" style="font-size: 4.9px; font-family: 'Arial'">1</tspan>
       </text>
      </g>
     </g>
    </g>
    <g id="xtick_23">
     <g id="line2d_43">
      <g>
       <use xlink:href="#mdc249e102d" x="429.737086" y="186.727725" style="stroke: #000000; stroke-width: 0.8"/>
      </g>
     </g>
     <g id="text_22">
      <!-- $\mathdefault{10^{2}}$ -->
      <g transform="translate(424.242086 200.946475)">
       <text>
        <tspan x="0" y="-0.599563" style="font-size: 7px; font-family: 'Arial'">1</tspan>
        <tspan x="3.893066" y="-0.599563" style="font-size: 7px; font-family: 'Arial'">0</tspan>
        <tspan x="7.908097" y="-5.478125" style="font-size: 4.9px; font-family: 'Arial'">2</tspan>
       </text>
      </g>
     </g>
    </g>
    <g id="xtick_24">
     <g id="line2d_44">
      <g>
       <use xlink:href="#mcbfa9a0144" x="294.356417" y="186.727725" style="stroke: #000000; stroke-width: 0.6"/>
      </g>
     </g>
    </g>
    <g id="xtick_25">
     <g id="line2d_45">
      <g>
       <use xlink:href="#mcbfa9a0144" x="303.741471" y="186.727725" style="stroke: #000000; stroke-width: 0.6"/>
      </g>
     </g>
    </g>
    <g id="xtick_26">
     <g id="line2d_46">
      <g>
       <use xlink:href="#mcbfa9a0144" x="311.409618" y="186.727725" style="stroke: #000000; stroke-width: 0.6"/>
      </g>
     </g>
    </g>
    <g id="xtick_27">
     <g id="line2d_47">
      <g>
       <use xlink:href="#mcbfa9a0144" x="317.892945" y="186.727725" style="stroke: #000000; stroke-width: 0.6"/>
      </g>
     </g>
    </g>
    <g id="xtick_28">
     <g id="line2d_48">
      <g>
       <use xlink:href="#mcbfa9a0144" x="323.509057" y="186.727725" style="stroke: #000000; stroke-width: 0.6"/>
      </g>
     </g>
    </g>
    <g id="xtick_29">
     <g id="line2d_49">
      <g>
       <use xlink:href="#mcbfa9a0144" x="328.46282" y="186.727725" style="stroke: #000000; stroke-width: 0.6"/>
      </g>
     </g>
    </g>
    <g id="xtick_30">
     <g id="line2d_50">
      <g>
       <use xlink:href="#mcbfa9a0144" x="362.046752" y="186.727725" style="stroke: #000000; stroke-width: 0.6"/>
      </g>
     </g>
    </g>
    <g id="xtick_31">
     <g id="line2d_51">
      <g>
       <use xlink:href="#mcbfa9a0144" x="379.099953" y="186.727725" style="stroke: #000000; stroke-width: 0.6"/>
      </g>
     </g>
    </g>
    <g id="xtick_32">
     <g id="line2d_52">
      <g>
       <use xlink:href="#mcbfa9a0144" x="391.199392" y="186.727725" style="stroke: #000000; stroke-width: 0.6"/>
      </g>
     </g>
    </g>
    <g id="xtick_33">
     <g id="line2d_53">
      <g>
       <use xlink:href="#mcbfa9a0144" x="400.584446" y="186.727725" style="stroke: #000000; stroke-width: 0.6"/>
      </g>
     </g>
    </g>
    <g id="xtick_34">
     <g id="line2d_54">
      <g>
       <use xlink:href="#mcbfa9a0144" x="408.252593" y="186.727725" style="stroke: #000000; stroke-width: 0.6"/>
      </g>
     </g>
    </g>
    <g id="xtick_35">
     <g id="line2d_55">
      <g>
       <use xlink:href="#mcbfa9a0144" x="414.73592" y="186.727725" style="stroke: #000000; stroke-width: 0.6"/>
      </g>
     </g>
    </g>
    <g id="xtick_36">
     <g id="line2d_56">
      <g>
       <use xlink:href="#mcbfa9a0144" x="420.352032" y="186.727725" style="stroke: #000000; stroke-width: 0.6"/>
      </g>
     </g>
    </g>
    <g id="xtick_37">
     <g id="line2d_57">
      <g>
       <use xlink:href="#mcbfa9a0144" x="425.305795" y="186.727725" style="stroke: #000000; stroke-width: 0.6"/>
      </g>
     </g>
    </g>
    <g id="xtick_38">
     <g id="line2d_58">
      <g>
       <use xlink:href="#mcbfa9a0144" x="458.889727" y="186.727725" style="stroke: #000000; stroke-width: 0.6"/>
      </g>
     </g>
    </g>
    <g id="xtick_39">
     <g id="line2d_59">
      <g>
       <use xlink:href="#mcbfa9a0144" x="475.942928" y="186.727725" style="stroke: #000000; stroke-width: 0.6"/>
      </g>
     </g>
    </g>
    <g id="xtick_40">
     <g id="line2d_60">
      <g>
       <use xlink:href="#mcbfa9a0144" x="488.042367" y="186.727725" style="stroke: #000000; stroke-width: 0.6"/>
      </g>
     </g>
    </g>
    <g id="xtick_41">
     <g id="line2d_61">
      <g>
       <use xlink:href="#mcbfa9a0144" x="497.427421" y="186.727725" style="stroke: #000000; stroke-width: 0.6"/>
      </g>
     </g>
    </g>
    <g id="xtick_42">
     <g id="line2d_62">
      <g>
       <use xlink:href="#mcbfa9a0144" x="505.095569" y="186.727725" style="stroke: #000000; stroke-width: 0.6"/>
      </g>
     </g>
    </g>
    <g id="text_23">
     <text style="font-size: 7px; font-family: 'Arial', 'Helvetica', 'DejaVu Sans', sans-serif; text-anchor: middle" x="400.584446" y="211.433506" transform="rotate(-0 400.584446 211.433506)">Top-k selected features</text>
    </g>
   </g>
   <g id="matplotlib.axis_4">
    <g id="ytick_9">
     <g id="line2d_63">
      <g>
       <use xlink:href="#m9fdc4d1770" x="294.057173" y="163.660033" style="stroke: #000000; stroke-width: 0.8"/>
      </g>
     </g>
     <g id="text_24">
      <text style="font-size: 7px; font-family: 'Arial', 'Helvetica', 'DejaVu Sans', sans-serif; text-anchor: end" x="287.057173" y="166.165267" transform="rotate(-0 287.057173 166.165267)">0.60</text>
     </g>
    </g>
    <g id="ytick_10">
     <g id="line2d_64">
      <g>
       <use xlink:href="#m9fdc4d1770" x="294.057173" y="140.398494" style="stroke: #000000; stroke-width: 0.8"/>
      </g>
     </g>
     <g id="text_25">
      <text style="font-size: 7px; font-family: 'Arial', 'Helvetica', 'DejaVu Sans', sans-serif; text-anchor: end" x="287.057173" y="142.903729" transform="rotate(-0 287.057173 142.903729)">0.65</text>
     </g>
    </g>
    <g id="ytick_11">
     <g id="line2d_65">
      <g>
       <use xlink:href="#m9fdc4d1770" x="294.057173" y="117.136956" style="stroke: #000000; stroke-width: 0.8"/>
      </g>
     </g>
     <g id="text_26">
      <text style="font-size: 7px; font-family: 'Arial', 'Helvetica', 'DejaVu Sans', sans-serif; text-anchor: end" x="287.057173" y="119.64219" transform="rotate(-0 287.057173 119.64219)">0.70</text>
     </g>
    </g>
    <g id="ytick_12">
     <g id="line2d_66">
      <g>
       <use xlink:href="#m9fdc4d1770" x="294.057173" y="93.875417" style="stroke: #000000; stroke-width: 0.8"/>
      </g>
     </g>
     <g id="text_27">
      <text style="font-size: 7px; font-family: 'Arial', 'Helvetica', 'DejaVu Sans', sans-serif; text-anchor: end" x="287.057173" y="96.380652" transform="rotate(-0 287.057173 96.380652)">0.75</text>
     </g>
    </g>
    <g id="ytick_13">
     <g id="line2d_67">
      <g>
       <use xlink:href="#m9fdc4d1770" x="294.057173" y="70.613879" style="stroke: #000000; stroke-width: 0.8"/>
      </g>
     </g>
     <g id="text_28">
      <text style="font-size: 7px; font-family: 'Arial', 'Helvetica', 'DejaVu Sans', sans-serif; text-anchor: end" x="287.057173" y="73.119113" transform="rotate(-0 287.057173 73.119113)">0.80</text>
     </g>
    </g>
    <g id="ytick_14">
     <g id="line2d_68">
      <g>
       <use xlink:href="#m9fdc4d1770" x="294.057173" y="47.35234" style="stroke: #000000; stroke-width: 0.8"/>
      </g>
     </g>
     <g id="text_29">
      <text style="font-size: 7px; font-family: 'Arial', 'Helvetica', 'DejaVu Sans', sans-serif; text-anchor: end" x="287.057173" y="49.857575" transform="rotate(-0 287.057173 49.857575)">0.85</text>
     </g>
    </g>
    <g id="ytick_15">
     <g id="line2d_69">
      <g>
       <use xlink:href="#m9fdc4d1770" x="294.057173" y="24.090802" style="stroke: #000000; stroke-width: 0.8"/>
      </g>
     </g>
     <g id="text_30">
      <text style="font-size: 7px; font-family: 'Arial', 'Helvetica', 'DejaVu Sans', sans-serif; text-anchor: end" x="287.057173" y="26.596036" transform="rotate(-0 287.057173 26.596036)">0.90</text>
     </g>
    </g>
    <g id="text_31">
     <text style="font-size: 7px; font-family: 'Arial', 'Helvetica', 'DejaVu Sans', sans-serif; text-anchor: middle" x="267.961236" y="103.567725" transform="rotate(-90 267.961236 103.567725)">Best accuracy across selectors</text>
    </g>
   </g>
   <g id="line2d_70">
    <path d="M 303.741471 93.100033 
L 332.894111 79.14311 
L 362.046752 67.51234 
L 400.584446 79.918494 
L 429.737086 92.324648 
L 458.889727 86.896956 
L 497.427421 89.998494 
" clip-path="url(#p8e2351b90e)" style="fill: none; stroke: #1f77b4; stroke-linecap: square"/>
    <g clip-path="url(#p8e2351b90e)">
     <use xlink:href="#m12b67e674f" x="303.741471" y="93.100033" style="fill: #1f77b4; stroke: #1f77b4"/>
     <use xlink:href="#m12b67e674f" x="332.894111" y="79.14311" style="fill: #1f77b4; stroke: #1f77b4"/>
     <use xlink:href="#m12b67e674f" x="362.046752" y="67.51234" style="fill: #1f77b4; stroke: #1f77b4"/>
     <use xlink:href="#m12b67e674f" x="400.584446" y="79.918494" style="fill: #1f77b4; stroke: #1f77b4"/>
     <use xlink:href="#m12b67e674f" x="429.737086" y="92.324648" style="fill: #1f77b4; stroke: #1f77b4"/>
     <use xlink:href="#m12b67e674f" x="458.889727" y="86.896956" style="fill: #1f77b4; stroke: #1f77b4"/>
     <use xlink:href="#m12b67e674f" x="497.427421" y="89.998494" style="fill: #1f77b4; stroke: #1f77b4"/>
    </g>
   </g>
   <g id="line2d_71">
    <path d="M 303.741471 155.906187 
L 332.894111 164.435417 
L 362.046752 163.660033 
L 400.584446 167.536956 
L 429.737086 166.761571 
L 458.889727 175.290802 
L 497.427421 172.964648 
" clip-path="url(#p8e2351b90e)" style="fill: none; stroke: #ff7f0e; stroke-linecap: square"/>
    <g clip-path="url(#p8e2351b90e)">
     <use xlink:href="#m13ae7b579f" x="303.741471" y="155.906187" style="fill: #ff7f0e; stroke: #ff7f0e"/>
     <use xlink:href="#m13ae7b579f" x="332.894111" y="164.435417" style="fill: #ff7f0e; stroke: #ff7f0e"/>
     <use xlink:href="#m13ae7b579f" x="362.046752" y="163.660033" style="fill: #ff7f0e; stroke: #ff7f0e"/>
     <use xlink:href="#m13ae7b579f" x="400.584446" y="167.536956" style="fill: #ff7f0e; stroke: #ff7f0e"/>
     <use xlink:href="#m13ae7b579f" x="429.737086" y="166.761571" style="fill: #ff7f0e; stroke: #ff7f0e"/>
     <use xlink:href="#m13ae7b579f" x="458.889727" y="175.290802" style="fill: #ff7f0e; stroke: #ff7f0e"/>
     <use xlink:href="#m13ae7b579f" x="497.427421" y="172.964648" style="fill: #ff7f0e; stroke: #ff7f0e"/>
    </g>
   </g>
   <g id="line2d_72">
    <path d="M 303.741471 157.456956 
L 332.894111 165.986187 
L 362.046752 164.435417 
L 400.584446 168.31234 
L 429.737086 167.536956 
L 458.889727 179.167725 
L 497.427421 172.964648 
" clip-path="url(#p8e2351b90e)" style="fill: none; stroke: #2ca02c; stroke-linecap: square"/>
    <g clip-path="url(#p8e2351b90e)">
     <use xlink:href="#m30f7da73a9" x="303.741471" y="157.456956" style="fill: #2ca02c; stroke: #2ca02c"/>
     <use xlink:href="#m30f7da73a9" x="332.894111" y="165.986187" style="fill: #2ca02c; stroke: #2ca02c"/>
     <use xlink:href="#m30f7da73a9" x="362.046752" y="164.435417" style="fill: #2ca02c; stroke: #2ca02c"/>
     <use xlink:href="#m30f7da73a9" x="400.584446" y="168.31234" style="fill: #2ca02c; stroke: #2ca02c"/>
     <use xlink:href="#m30f7da73a9" x="429.737086" y="167.536956" style="fill: #2ca02c; stroke: #2ca02c"/>
     <use xlink:href="#m30f7da73a9" x="458.889727" y="179.167725" style="fill: #2ca02c; stroke: #2ca02c"/>
     <use xlink:href="#m30f7da73a9" x="497.427421" y="172.964648" style="fill: #2ca02c; stroke: #2ca02c"/>
    </g>
   </g>
   <g id="line2d_73">
    <path d="M 303.741471 53.555417 
L 332.894111 29.518494 
L 362.046752 29.518494 
L 400.584446 93.875417 
L 429.737086 124.890802 
L 458.889727 151.253879 
L 497.427421 166.761571 
" clip-path="url(#p8e2351b90e)" style="fill: none; stroke: #d62728; stroke-linecap: square"/>
    <g clip-path="url(#p8e2351b90e)">
     <use xlink:href="#mdb223ab906" x="303.741471" y="53.555417" style="fill: #d62728; stroke: #d62728"/>
     <use xlink:href="#mdb223ab906" x="332.894111" y="29.518494" style="fill: #d62728; stroke: #d62728"/>
     <use xlink:href="#mdb223ab906" x="362.046752" y="29.518494" style="fill: #d62728; stroke: #d62728"/>
     <use xlink:href="#mdb223ab906" x="400.584446" y="93.875417" style="fill: #d62728; stroke: #d62728"/>
     <use xlink:href="#mdb223ab906" x="429.737086" y="124.890802" style="fill: #d62728; stroke: #d62728"/>
     <use xlink:href="#mdb223ab906" x="458.889727" y="151.253879" style="fill: #d62728; stroke: #d62728"/>
     <use xlink:href="#mdb223ab906" x="497.427421" y="166.761571" style="fill: #d62728; stroke: #d62728"/>
    </g>
   </g>
   <g id="line2d_74">
    <path d="M 303.741471 63.635417 
L 332.894111 34.170802 
L 362.046752 27.967725 
L 400.584446 41.924648 
L 429.737086 55.881571 
L 458.889727 75.266187 
L 497.427421 96.201571 
" clip-path="url(#p8e2351b90e)" style="fill: none; stroke: #9467bd; stroke-linecap: square"/>
    <g clip-path="url(#p8e2351b90e)">
     <use xlink:href="#md3d6242ae3" x="303.741471" y="63.635417" style="fill: #9467bd; stroke: #9467bd"/>
     <use xlink:href="#md3d6242ae3" x="332.894111" y="34.170802" style="fill: #9467bd; stroke: #9467bd"/>
     <use xlink:href="#md3d6242ae3" x="362.046752" y="27.967725" style="fill: #9467bd; stroke: #9467bd"/>
     <use xlink:href="#md3d6242ae3" x="400.584446" y="41.924648" style="fill: #9467bd; stroke: #9467bd"/>
     <use xlink:href="#md3d6242ae3" x="429.737086" y="55.881571" style="fill: #9467bd; stroke: #9467bd"/>
     <use xlink:href="#md3d6242ae3" x="458.889727" y="75.266187" style="fill: #9467bd; stroke: #9467bd"/>
     <use xlink:href="#md3d6242ae3" x="497.427421" y="96.201571" style="fill: #9467bd; stroke: #9467bd"/>
    </g>
   </g>
   <g id="patch_6">
    <path d="M 294.057173 186.727725 
L 294.057173 20.407725 
" style="fill: none; stroke: #000000; stroke-width: 0.8; stroke-linejoin: miter; stroke-linecap: square"/>
   </g>
   <g id="patch_7">
    <path d="M 294.057173 186.727725 
L 507.111719 186.727725 
" style="fill: none; stroke: #000000; stroke-width: 0.8; stroke-linejoin: miter; stroke-linecap: square"/>
   </g>
   <g id="text_32">
    <text style="font-weight: 700; font-size: 9px; font-family: 'Arial', 'Helvetica', 'DejaVu Sans', sans-serif; text-anchor: start" x="277.01281" y="13.642031" transform="rotate(-0 277.01281 13.642031)">b</text>
   </g>
   <g id="text_33">
    <text style="font-weight: 700; font-size: 8.4px; font-family: 'Arial', 'Helvetica', 'DejaVu Sans', sans-serif; text-anchor: start" x="294.057173" y="14.407725" transform="rotate(-0 294.057173 14.407725)">Classifier sensitivity to selected feature count</text>
   </g>
   <g id="legend_2">
    <g id="line2d_75">
     <path d="M 386.525781 26.797569 
L 391.525781 26.797569 
L 396.525781 26.797569 
" style="fill: none; stroke: #1f77b4; stroke-linecap: square"/>
     <g>
      <use xlink:href="#m12b67e674f" x="391.525781" y="26.797569" style="fill: #1f77b4; stroke: #1f77b4"/>
     </g>
    </g>
    <g id="text_34">
     <text style="font-size: 5px; font-family: 'Arial', 'Helvetica', 'DejaVu Sans', sans-serif; text-anchor: start" x="400.525781" y="28.547569" transform="rotate(-0 400.525781 28.547569)">Gradient Boosting</text>
    </g>
    <g id="line2d_76">
     <path d="M 386.525781 33.928819 
L 391.525781 33.928819 
L 396.525781 33.928819 
" style="fill: none; stroke: #ff7f0e; stroke-linecap: square"/>
     <g>
      <use xlink:href="#m13ae7b579f" x="391.525781" y="33.928819" style="fill: #ff7f0e; stroke: #ff7f0e"/>
     </g>
    </g>
    <g id="text_35">
     <text style="font-size: 5px; font-family: 'Arial', 'Helvetica', 'DejaVu Sans', sans-serif; text-anchor: start" x="400.525781" y="35.678819" transform="rotate(-0 400.525781 35.678819)">Linear SVM</text>
    </g>
    <g id="line2d_77">
     <path d="M 386.525781 41.001475 
L 391.525781 41.001475 
L 396.525781 41.001475 
" style="fill: none; stroke: #2ca02c; stroke-linecap: square"/>
     <g>
      <use xlink:href="#m30f7da73a9" x="391.525781" y="41.001475" style="fill: #2ca02c; stroke: #2ca02c"/>
     </g>
    </g>
    <g id="text_36">
     <text style="font-size: 5px; font-family: 'Arial', 'Helvetica', 'DejaVu Sans', sans-serif; text-anchor: start" x="400.525781" y="42.751475" transform="rotate(-0 400.525781 42.751475)">Logistic Regression</text>
    </g>
    <g id="line2d_78">
     <path d="M 454.15625 26.797569 
L 459.15625 26.797569 
L 464.15625 26.797569 
" style="fill: none; stroke: #d62728; stroke-linecap: square"/>
     <g>
      <use xlink:href="#mdb223ab906" x="459.15625" y="26.797569" style="fill: #d62728; stroke: #d62728"/>
     </g>
    </g>
    <g id="text_37">
     <text style="font-size: 5px; font-family: 'Arial', 'Helvetica', 'DejaVu Sans', sans-serif; text-anchor: start" x="468.15625" y="28.547569" transform="rotate(-0 468.15625 28.547569)">RBF-SVM</text>
    </g>
    <g id="line2d_79">
     <path d="M 454.15625 33.870225 
L 459.15625 33.870225 
L 464.15625 33.870225 
" style="fill: none; stroke: #9467bd; stroke-linecap: square"/>
     <g>
      <use xlink:href="#md3d6242ae3" x="459.15625" y="33.870225" style="fill: #9467bd; stroke: #9467bd"/>
     </g>
    </g>
    <g id="text_38">
     <text style="font-size: 5px; font-family: 'Arial', 'Helvetica', 'DejaVu Sans', sans-serif; text-anchor: start" x="468.15625" y="35.620225" transform="rotate(-0 468.15625 35.620225)">Random Forest</text>
    </g>
   </g>
  </g>
 </g>
 <defs>
  <clipPath id="p09bc1ba008">
   <rect x="38.391719" y="20.407725" width="213.054545" height="166.32"/>
  </clipPath>
  <clipPath id="p8e2351b90e">
   <rect x="294.057173" y="20.407725" width="213.054545" height="166.32"/>
  </clipPath>
 </defs>
</svg>
