<?xml version="1.0" encoding="utf-8" standalone="no"?>
<!DOCTYPE svg PUBLIC "-//W3C//DTD SVG 1.1//EN"
  "http://www.w3.org/Graphics/SVG/1.1/DTD/svg11.dtd">
<svg xmlns:xlink="http://www.w3.org/1999/xlink" width="346.826406pt" height="233.352406pt" viewBox="0 0 346.826406 233.352406" xmlns="http://www.w3.org/2000/svg" version="1.1">
 <metadata>
  <rdf:RDF xmlns:dc="http://purl.org/dc/elements/1.1/" xmlns:cc="http://creativecommons.org/ns#" xmlns:rdf="http://www.w3.org/1999/02/22-rdf-syntax-ns#">
   <cc:Work>
    <dc:type rdf:resource="http://purl.org/dc/dcmitype/StillImage"/>
    <dc:date>2026-06-07T18:59:25.420616</dc:date>
    <dc:format>image/svg+xml</dc:format>
    <dc:creator>
     <cc:Agent>
      <dc:title>Matplotlib v3.10.8, https://matplotlib.org/</dc:title>
     </cc:Agent>
    </dc:creator>
   </cc:Work>
  </rdf:RDF>
 </metadata>
 <defs>
  <style type="text/css">*{stroke-linejoin: round; stroke-linecap: butt}</style>
 </defs>
 <g id="figure_1">
  <g id="patch_1">
   <path d="M 0 233.352406 
L 346.826406 233.352406 
L 346.826406 0 
L 0 0 
z
" style="fill: #ffffff"/>
  </g>
  <g id="axes_1">
   <g id="patch_2">
    <path d="M 38.306406 202.266938 
L 339.626406 202.266938 
L 339.626406 19.314938 
L 38.306406 19.314938 
z
" style="fill: #ffffff"/>
   </g>
   <g id="matplotlib.axis_1">
    <g id="xtick_1">
     <g id="line2d_1">
      <defs>
       <path id="m145731a51b" d="M 0 0 
L 0 3.5 
" style="stroke: #000000; stroke-width: 0.8"/>
      </defs>
      <g>
       <use xlink:href="#m145731a51b" x="59.611861" y="202.266938" style="stroke: #000000; stroke-width: 0.8"/>
      </g>
     </g>
     <g id="text_1">
      <text style="font-size: 7px; font-family: 'Arial', 'Helvetica', 'DejaVu Sans', sans-serif; text-anchor: middle" x="59.611861" y="214.277406" transform="rotate(-0 59.611861 214.277406)">250</text>
     </g>
    </g>
    <g id="xtick_2">
     <g id="line2d_2">
      <g>
       <use xlink:href="#m145731a51b" x="97.657315" y="202.266938" style="stroke: #000000; stroke-width: 0.8"/>
      </g>
     </g>
     <g id="text_2">
      <text style="font-size: 7px; font-family: 'Arial', 'Helvetica', 'DejaVu Sans', sans-serif; text-anchor: middle" x="97.657315" y="214.277406" transform="rotate(-0 97.657315 214.277406)">500</text>
     </g>
    </g>
    <g id="xtick_3">
     <g id="line2d_3">
      <g>
       <use xlink:href="#m145731a51b" x="135.70277" y="202.266938" style="stroke: #000000; stroke-width: 0.8"/>
      </g>
     </g>
     <g id="text_3">
      <text style="font-size: 7px; font-family: 'Arial', 'Helvetica', 'DejaVu Sans', sans-serif; text-anchor: middle" x="135.70277" y="214.277406" transform="rotate(-0 135.70277 214.277406)">750</text>
     </g>
    </g>
    <g id="xtick_4">
     <g id="line2d_4">
      <g>
       <use xlink:href="#m145731a51b" x="173.748224" y="202.266938" style="stroke: #000000; stroke-width: 0.8"/>
      </g>
     </g>
     <g id="text_4">
      <text style="font-size: 7px; font-family: 'Arial', 'Helvetica', 'DejaVu Sans', sans-serif; text-anchor: middle" x="173.748224" y="214.277406" transform="rotate(-0 173.748224 214.277406)">1000</text>
     </g>
    </g>
    <g id="xtick_5">
     <g id="line2d_5">
      <g>
       <use xlink:href="#m145731a51b" x="211.793679" y="202.266938" style="stroke: #000000; stroke-width: 0.8"/>
      </g>
     </g>
     <g id="text_5">
      <text style="font-size: 7px; font-family: 'Arial', 'Helvetica', 'DejaVu Sans', sans-serif; text-anchor: middle" x="211.793679" y="214.277406" transform="rotate(-0 211.793679 214.277406)">1250</text>
     </g>
    </g>
    <g id="xtick_6">
     <g id="line2d_6">
      <g>
       <use xlink:href="#m145731a51b" x="249.839134" y="202.266938" style="stroke: #000000; stroke-width: 0.8"/>
      </g>
     </g>
     <g id="text_6">
      <text style="font-size: 7px; font-family: 'Arial', 'Helvetica', 'DejaVu Sans', sans-serif; text-anchor: middle" x="249.839134" y="214.277406" transform="rotate(-0 249.839134 214.277406)">1500</text>
     </g>
    </g>
    <g id="xtick_7">
     <g id="line2d_7">
      <g>
       <use xlink:href="#m145731a51b" x="287.884588" y="202.266938" style="stroke: #000000; stroke-width: 0.8"/>
      </g>
     </g>
     <g id="text_7">
      <text style="font-size: 7px; font-family: 'Arial', 'Helvetica', 'DejaVu Sans', sans-serif; text-anchor: middle" x="287.884588" y="214.277406" transform="rotate(-0 287.884588 214.277406)">1750</text>
     </g>
    </g>
    <g id="xtick_8">
     <g id="line2d_8">
      <g>
       <use xlink:href="#m145731a51b" x="325.930043" y="202.266938" style="stroke: #000000; stroke-width: 0.8"/>
      </g>
     </g>
     <g id="text_8">
      <text style="font-size: 7px; font-family: 'Arial', 'Helvetica', 'DejaVu Sans', sans-serif; text-anchor: middle" x="325.930043" y="214.277406" transform="rotate(-0 325.930043 214.277406)">2000</text>
     </g>
    </g>
    <g id="text_9">
     <text style="font-size: 7px; font-family: 'Arial', 'Helvetica', 'DejaVu Sans', sans-serif; text-anchor: middle" x="188.966406" y="224.679125" transform="rotate(-0 188.966406 224.679125)">Training samples</text>
    </g>
   </g>
   <g id="matplotlib.axis_2">
    <g id="ytick_1">
     <g id="line2d_9">
      <defs>
       <path id="m31785e7184" d="M 0 0 
L -3.5 0 
" style="stroke: #000000; stroke-width: 0.8"/>
      </defs>
      <g>
       <use xlink:href="#m31785e7184" x="38.306406" y="186.935014" style="stroke: #000000; stroke-width: 0.8"/>
      </g>
     </g>
     <g id="text_10">
      <text style="font-size: 7px; font-family: 'Arial', 'Helvetica', 'DejaVu Sans', sans-serif; text-anchor: end" x="31.306406" y="189.440249" transform="rotate(-0 31.306406 189.440249)">0.50</text>
     </g>
    </g>
    <g id="ytick_2">
     <g id="line2d_10">
      <g>
       <use xlink:href="#m31785e7184" x="38.306406" y="152.798426" style="stroke: #000000; stroke-width: 0.8"/>
      </g>
     </g>
     <g id="text_11">
      <text style="font-size: 7px; font-family: 'Arial', 'Helvetica', 'DejaVu Sans', sans-serif; text-anchor: end" x="31.306406" y="155.303661" transform="rotate(-0 31.306406 155.303661)">0.55</text>
     </g>
    </g>
    <g id="ytick_3">
     <g id="line2d_11">
      <g>
       <use xlink:href="#m31785e7184" x="38.306406" y="118.661839" style="stroke: #000000; stroke-width: 0.8"/>
      </g>
     </g>
     <g id="text_12">
      <text style="font-size: 7px; font-family: 'Arial', 'Helvetica', 'DejaVu Sans', sans-serif; text-anchor: end" x="31.306406" y="121.167073" transform="rotate(-0 31.306406 121.167073)">0.60</text>
     </g>
    </g>
    <g id="ytick_4">
     <g id="line2d_12">
      <g>
       <use xlink:href="#m31785e7184" x="38.306406" y="84.525251" style="stroke: #000000; stroke-width: 0.8"/>
      </g>
     </g>
     <g id="text_13">
      <text style="font-size: 7px; font-family: 'Arial', 'Helvetica', 'DejaVu Sans', sans-serif; text-anchor: end" x="31.306406" y="87.030485" transform="rotate(-0 31.306406 87.030485)">0.65</text>
     </g>
    </g>
    <g id="ytick_5">
     <g id="line2d_13">
      <g>
       <use xlink:href="#m31785e7184" x="38.306406" y="50.388663" style="stroke: #000000; stroke-width: 0.8"/>
      </g>
     </g>
     <g id="text_14">
      <text style="font-size: 7px; font-family: 'Arial', 'Helvetica', 'DejaVu Sans', sans-serif; text-anchor: end" x="31.306406" y="52.893897" transform="rotate(-0 31.306406 52.893897)">0.70</text>
     </g>
    </g>
    <g id="text_15">
     <text style="font-size: 7px; font-family: 'Arial', 'Helvetica', 'DejaVu Sans', sans-serif; text-anchor: middle" x="12.210469" y="110.790937" transform="rotate(-90 12.210469 110.790937)">Accuracy</text>
    </g>
   </g>
   <g id="LineCollection_1">
    <path d="M 52.00277 193.441433 
L 52.00277 164.953342 
" clip-path="url(#p13c5222c67)" style="fill: none; stroke: #1f77b4"/>
    <path d="M 97.657315 172.499457 
L 97.657315 146.75203 
" clip-path="url(#p13c5222c67)" style="fill: none; stroke: #1f77b4"/>
    <path d="M 173.748224 150.579398 
L 173.748224 129.073648 
" clip-path="url(#p13c5222c67)" style="fill: none; stroke: #1f77b4"/>
    <path d="M 249.839134 137.827448 
L 249.839134 134.087972 
" clip-path="url(#p13c5222c67)" style="fill: none; stroke: #1f77b4"/>
    <path d="M 325.930043 131.178587 
L 325.930043 131.178587 
" clip-path="url(#p13c5222c67)" style="fill: none; stroke: #1f77b4"/>
   </g>
   <g id="line2d_14">
    <defs>
     <path id="m40ffd93f4a" d="M 2 0 
L -2 -0 
" style="stroke: #1f77b4"/>
    </defs>
    <g clip-path="url(#p13c5222c67)">
     <use xlink:href="#m40ffd93f4a" x="52.00277" y="193.441433" style="fill: #1f77b4; stroke: #1f77b4"/>
     <use xlink:href="#m40ffd93f4a" x="97.657315" y="172.499457" style="fill: #1f77b4; stroke: #1f77b4"/>
     <use xlink:href="#m40ffd93f4a" x="173.748224" y="150.579398" style="fill: #1f77b4; stroke: #1f77b4"/>
     <use xlink:href="#m40ffd93f4a" x="249.839134" y="137.827448" style="fill: #1f77b4; stroke: #1f77b4"/>
     <use xlink:href="#m40ffd93f4a" x="325.930043" y="131.178587" style="fill: #1f77b4; stroke: #1f77b4"/>
    </g>
   </g>
   <g id="line2d_15">
    <g clip-path="url(#p13c5222c67)">
     <use xlink:href="#m40ffd93f4a" x="52.00277" y="164.953342" style="fill: #1f77b4; stroke: #1f77b4"/>
     <use xlink:href="#m40ffd93f4a" x="97.657315" y="146.75203" style="fill: #1f77b4; stroke: #1f77b4"/>
     <use xlink:href="#m40ffd93f4a" x="173.748224" y="129.073648" style="fill: #1f77b4; stroke: #1f77b4"/>
     <use xlink:href="#m40ffd93f4a" x="249.839134" y="134.087972" style="fill: #1f77b4; stroke: #1f77b4"/>
     <use xlink:href="#m40ffd93f4a" x="325.930043" y="131.178587" style="fill: #1f77b4; stroke: #1f77b4"/>
    </g>
   </g>
   <g id="LineCollection_2">
    <path d="M 52.00277 192.08544 
L 52.00277 162.212945 
" clip-path="url(#p13c5222c67)" style="fill: none; stroke: #ff7f0e"/>
    <path d="M 97.657315 166.493597 
L 97.657315 150.482118 
" clip-path="url(#p13c5222c67)" style="fill: none; stroke: #ff7f0e"/>
    <path d="M 173.748224 164.968529 
L 173.748224 142.904096 
" clip-path="url(#p13c5222c67)" style="fill: none; stroke: #ff7f0e"/>
    <path d="M 249.839134 160.922595 
L 249.839134 131.929932 
" clip-path="url(#p13c5222c67)" style="fill: none; stroke: #ff7f0e"/>
    <path d="M 325.930043 132.316474 
L 325.930043 132.316474 
" clip-path="url(#p13c5222c67)" style="fill: none; stroke: #ff7f0e"/>
   </g>
   <g id="line2d_16">
    <defs>
     <path id="meaf573151e" d="M 2 0 
L -2 -0 
" style="stroke: #ff7f0e"/>
    </defs>
    <g clip-path="url(#p13c5222c67)">
     <use xlink:href="#meaf573151e" x="52.00277" y="192.08544" style="fill: #ff7f0e; stroke: #ff7f0e"/>
     <use xlink:href="#meaf573151e" x="97.657315" y="166.493597" style="fill: #ff7f0e; stroke: #ff7f0e"/>
     <use xlink:href="#meaf573151e" x="173.748224" y="164.968529" style="fill: #ff7f0e; stroke: #ff7f0e"/>
     <use xlink:href="#meaf573151e" x="249.839134" y="160.922595" style="fill: #ff7f0e; stroke: #ff7f0e"/>
     <use xlink:href="#meaf573151e" x="325.930043" y="132.316474" style="fill: #ff7f0e; stroke: #ff7f0e"/>
    </g>
   </g>
   <g id="line2d_17">
    <g clip-path="url(#p13c5222c67)">
     <use xlink:href="#meaf573151e" x="52.00277" y="162.212945" style="fill: #ff7f0e; stroke: #ff7f0e"/>
     <use xlink:href="#meaf573151e" x="97.657315" y="150.482118" style="fill: #ff7f0e; stroke: #ff7f0e"/>
     <use xlink:href="#meaf573151e" x="173.748224" y="142.904096" style="fill: #ff7f0e; stroke: #ff7f0e"/>
     <use xlink:href="#meaf573151e" x="249.839134" y="131.929932" style="fill: #ff7f0e; stroke: #ff7f0e"/>
     <use xlink:href="#meaf573151e" x="325.930043" y="132.316474" style="fill: #ff7f0e; stroke: #ff7f0e"/>
    </g>
   </g>
   <g id="LineCollection_3">
    <path d="M 52.00277 193.950937 
L 52.00277 159.437138 
" clip-path="url(#p13c5222c67)" style="fill: none; stroke: #2ca02c"/>
    <path d="M 97.657315 171.504763 
L 97.657315 147.29157 
" clip-path="url(#p13c5222c67)" style="fill: none; stroke: #2ca02c"/>
    <path d="M 173.748224 165.958722 
L 173.748224 144.189676 
" clip-path="url(#p13c5222c67)" style="fill: none; stroke: #2ca02c"/>
    <path d="M 249.839134 162.884446 
L 249.839134 131.788698 
" clip-path="url(#p13c5222c67)" style="fill: none; stroke: #2ca02c"/>
    <path d="M 325.930043 132.316474 
L 325.930043 132.316474 
" clip-path="url(#p13c5222c67)" style="fill: none; stroke: #2ca02c"/>
   </g>
   <g id="line2d_18">
    <defs>
     <path id="m17247f6f5e" d="M 2 0 
L -2 -0 
" style="stroke: #2ca02c"/>
    </defs>
    <g clip-path="url(#p13c5222c67)">
     <use xlink:href="#m17247f6f5e" x="52.00277" y="193.950937" style="fill: #2ca02c; stroke: #2ca02c"/>
     <use xlink:href="#m17247f6f5e" x="97.657315" y="171.504763" style="fill: #2ca02c; stroke: #2ca02c"/>
     <use xlink:href="#m17247f6f5e" x="173.748224" y="165.958722" style="fill: #2ca02c; stroke: #2ca02c"/>
     <use xlink:href="#m17247f6f5e" x="249.839134" y="162.884446" style="fill: #2ca02c; stroke: #2ca02c"/>
     <use xlink:href="#m17247f6f5e" x="325.930043" y="132.316474" style="fill: #2ca02c; stroke: #2ca02c"/>
    </g>
   </g>
   <g id="line2d_19">
    <g clip-path="url(#p13c5222c67)">
     <use xlink:href="#m17247f6f5e" x="52.00277" y="159.437138" style="fill: #2ca02c; stroke: #2ca02c"/>
     <use xlink:href="#m17247f6f5e" x="97.657315" y="147.29157" style="fill: #2ca02c; stroke: #2ca02c"/>
     <use xlink:href="#m17247f6f5e" x="173.748224" y="144.189676" style="fill: #2ca02c; stroke: #2ca02c"/>
     <use xlink:href="#m17247f6f5e" x="249.839134" y="131.788698" style="fill: #2ca02c; stroke: #2ca02c"/>
     <use xlink:href="#m17247f6f5e" x="325.930043" y="132.316474" style="fill: #2ca02c; stroke: #2ca02c"/>
    </g>
   </g>
   <g id="LineCollection_4">
    <path d="M 52.00277 178.465037 
L 52.00277 153.985932 
" clip-path="url(#p13c5222c67)" style="fill: none; stroke: #d62728"/>
    <path d="M 97.657315 156.701814 
L 97.657315 135.695558 
" clip-path="url(#p13c5222c67)" style="fill: none; stroke: #d62728"/>
    <path d="M 173.748224 155.280545 
L 173.748224 128.468892 
" clip-path="url(#p13c5222c67)" style="fill: none; stroke: #d62728"/>
    <path d="M 249.839134 137.790387 
L 249.839134 122.74617 
" clip-path="url(#p13c5222c67)" style="fill: none; stroke: #d62728"/>
    <path d="M 325.930043 123.213384 
L 325.930043 123.213384 
" clip-path="url(#p13c5222c67)" style="fill: none; stroke: #d62728"/>
   </g>
   <g id="line2d_20">
    <defs>
     <path id="m5ece7dbf11" d="M 2 0 
L -2 -0 
" style="stroke: #d62728"/>
    </defs>
    <g clip-path="url(#p13c5222c67)">
     <use xlink:href="#m5ece7dbf11" x="52.00277" y="178.465037" style="fill: #d62728; stroke: #d62728"/>
     <use xlink:href="#m5ece7dbf11" x="97.657315" y="156.701814" style="fill: #d62728; stroke: #d62728"/>
     <use xlink:href="#m5ece7dbf11" x="173.748224" y="155.280545" style="fill: #d62728; stroke: #d62728"/>
     <use xlink:href="#m5ece7dbf11" x="249.839134" y="137.790387" style="fill: #d62728; stroke: #d62728"/>
     <use xlink:href="#m5ece7dbf11" x="325.930043" y="123.213384" style="fill: #d62728; stroke: #d62728"/>
    </g>
   </g>
   <g id="line2d_21">
    <g clip-path="url(#p13c5222c67)">
     <use xlink:href="#m5ece7dbf11" x="52.00277" y="153.985932" style="fill: #d62728; stroke: #d62728"/>
     <use xlink:href="#m5ece7dbf11" x="97.657315" y="135.695558" style="fill: #d62728; stroke: #d62728"/>
     <use xlink:href="#m5ece7dbf11" x="173.748224" y="128.468892" style="fill: #d62728; stroke: #d62728"/>
     <use xlink:href="#m5ece7dbf11" x="249.839134" y="122.74617" style="fill: #d62728; stroke: #d62728"/>
     <use xlink:href="#m5ece7dbf11" x="325.930043" y="123.213384" style="fill: #d62728; stroke: #d62728"/>
    </g>
   </g>
   <g id="LineCollection_5">
    <path d="M 52.00277 175.670388 
L 52.00277 146.767181 
" clip-path="url(#p13c5222c67)" style="fill: none; stroke: #9467bd"/>
    <path d="M 97.657315 118.505971 
L 97.657315 94.239363 
" clip-path="url(#p13c5222c67)" style="fill: none; stroke: #9467bd"/>
    <path d="M 173.748224 88.467144 
L 173.748224 64.652949 
" clip-path="url(#p13c5222c67)" style="fill: none; stroke: #9467bd"/>
    <path d="M 249.839134 63.349496 
L 249.839134 46.986074 
" clip-path="url(#p13c5222c67)" style="fill: none; stroke: #9467bd"/>
    <path d="M 325.930043 27.630937 
L 325.930043 27.630937 
" clip-path="url(#p13c5222c67)" style="fill: none; stroke: #9467bd"/>
   </g>
   <g id="line2d_22">
    <defs>
     <path id="m78aaa6e985" d="M 2 0 
L -2 -0 
" style="stroke: #9467bd"/>
    </defs>
    <g clip-path="url(#p13c5222c67)">
     <use xlink:href="#m78aaa6e985" x="52.00277" y="175.670388" style="fill: #9467bd; stroke: #9467bd"/>
     <use xlink:href="#m78aaa6e985" x="97.657315" y="118.505971" style="fill: #9467bd; stroke: #9467bd"/>
     <use xlink:href="#m78aaa6e985" x="173.748224" y="88.467144" style="fill: #9467bd; stroke: #9467bd"/>
     <use xlink:href="#m78aaa6e985" x="249.839134" y="63.349496" style="fill: #9467bd; stroke: #9467bd"/>
     <use xlink:href="#m78aaa6e985" x="325.930043" y="27.630937" style="fill: #9467bd; stroke: #9467bd"/>
    </g>
   </g>
   <g id="line2d_23">
    <g clip-path="url(#p13c5222c67)">
     <use xlink:href="#m78aaa6e985" x="52.00277" y="146.767181" style="fill: #9467bd; stroke: #9467bd"/>
     <use xlink:href="#m78aaa6e985" x="97.657315" y="94.239363" style="fill: #9467bd; stroke: #9467bd"/>
     <use xlink:href="#m78aaa6e985" x="173.748224" y="64.652949" style="fill: #9467bd; stroke: #9467bd"/>
     <use xlink:href="#m78aaa6e985" x="249.839134" y="46.986074" style="fill: #9467bd; stroke: #9467bd"/>
     <use xlink:href="#m78aaa6e985" x="325.930043" y="27.630937" style="fill: #9467bd; stroke: #9467bd"/>
    </g>
   </g>
   <g id="line2d_24">
    <path d="M 52.00277 179.197388 
L 97.657315 159.625744 
L 173.748224 139.826523 
L 249.839134 135.95771 
L 325.930043 131.178587 
" clip-path="url(#p13c5222c67)" style="fill: none; stroke: #1f77b4; stroke-linecap: square"/>
    <defs>
     <path id="m567a933014" d="M 0 3 
C 0.795609 3 1.55874 2.683901 2.12132 2.12132 
C 2.683901 1.55874 3 0.795609 3 0 
C 3 -0.795609 2.683901 -1.55874 2.12132 -2.12132 
C 1.55874 -2.683901 0.795609 -3 0 -3 
C -0.795609 -3 -1.55874 -2.683901 -2.12132 -2.12132 
C -2.683901 -1.55874 -3 -0.795609 -3 0 
C -3 0.795609 -2.683901 1.55874 -2.12132 2.12132 
C -1.55874 2.683901 -0.795609 3 0 3 
z
" style="stroke: #1f77b4"/>
    </defs>
    <g clip-path="url(#p13c5222c67)">
     <use xlink:href="#m567a933014" x="52.00277" y="179.197388" style="fill: #1f77b4; stroke: #1f77b4"/>
     <use xlink:href="#m567a933014" x="97.657315" y="159.625744" style="fill: #1f77b4; stroke: #1f77b4"/>
     <use xlink:href="#m567a933014" x="173.748224" y="139.826523" style="fill: #1f77b4; stroke: #1f77b4"/>
     <use xlink:href="#m567a933014" x="249.839134" y="135.95771" style="fill: #1f77b4; stroke: #1f77b4"/>
     <use xlink:href="#m567a933014" x="325.930043" y="131.178587" style="fill: #1f77b4; stroke: #1f77b4"/>
    </g>
   </g>
   <g id="line2d_25">
    <path d="M 52.00277 177.149192 
L 97.657315 158.487858 
L 173.748224 153.936313 
L 249.839134 146.426263 
L 325.930043 132.316474 
" clip-path="url(#p13c5222c67)" style="fill: none; stroke: #ff7f0e; stroke-linecap: square"/>
    <defs>
     <path id="m25184adcfb" d="M 0 3 
C 0.795609 3 1.55874 2.683901 2.12132 2.12132 
C 2.683901 1.55874 3 0.795609 3 0 
C 3 -0.795609 2.683901 -1.55874 2.12132 -2.12132 
C 1.55874 -2.683901 0.795609 -3 0 -3 
C -0.795609 -3 -1.55874 -2.683901 -2.12132 -2.12132 
C -2.683901 -1.55874 -3 -0.795609 -3 0 
C -3 0.795609 -2.683901 1.55874 -2.12132 2.12132 
C -1.55874 2.683901 -0.795609 3 0 3 
z
" style="stroke: #ff7f0e"/>
    </defs>
    <g clip-path="url(#p13c5222c67)">
     <use xlink:href="#m25184adcfb" x="52.00277" y="177.149192" style="fill: #ff7f0e; stroke: #ff7f0e"/>
     <use xlink:href="#m25184adcfb" x="97.657315" y="158.487858" style="fill: #ff7f0e; stroke: #ff7f0e"/>
     <use xlink:href="#m25184adcfb" x="173.748224" y="153.936313" style="fill: #ff7f0e; stroke: #ff7f0e"/>
     <use xlink:href="#m25184adcfb" x="249.839134" y="146.426263" style="fill: #ff7f0e; stroke: #ff7f0e"/>
     <use xlink:href="#m25184adcfb" x="325.930043" y="132.316474" style="fill: #ff7f0e; stroke: #ff7f0e"/>
    </g>
   </g>
   <g id="line2d_26">
    <path d="M 52.00277 176.694038 
L 97.657315 159.398167 
L 173.748224 155.074199 
L 249.839134 147.336572 
L 325.930043 132.316474 
" clip-path="url(#p13c5222c67)" style="fill: none; stroke: #2ca02c; stroke-linecap: square"/>
    <defs>
     <path id="m57cb45649e" d="M 0 3 
C 0.795609 3 1.55874 2.683901 2.12132 2.12132 
C 2.683901 1.55874 3 0.795609 3 0 
C 3 -0.795609 2.683901 -1.55874 2.12132 -2.12132 
C 1.55874 -2.683901 0.795609 -3 0 -3 
C -0.795609 -3 -1.55874 -2.683901 -2.12132 -2.12132 
C -2.683901 -1.55874 -3 -0.795609 -3 0 
C -3 0.795609 -2.683901 1.55874 -2.12132 2.12132 
C -1.55874 2.683901 -0.795609 3 0 3 
z
" style="stroke: #2ca02c"/>
    </defs>
    <g clip-path="url(#p13c5222c67)">
     <use xlink:href="#m57cb45649e" x="52.00277" y="176.694038" style="fill: #2ca02c; stroke: #2ca02c"/>
     <use xlink:href="#m57cb45649e" x="97.657315" y="159.398167" style="fill: #2ca02c; stroke: #2ca02c"/>
     <use xlink:href="#m57cb45649e" x="173.748224" y="155.074199" style="fill: #2ca02c; stroke: #2ca02c"/>
     <use xlink:href="#m57cb45649e" x="249.839134" y="147.336572" style="fill: #2ca02c; stroke: #2ca02c"/>
     <use xlink:href="#m57cb45649e" x="325.930043" y="132.316474" style="fill: #2ca02c; stroke: #2ca02c"/>
    </g>
   </g>
   <g id="line2d_27">
    <path d="M 52.00277 166.225484 
L 97.657315 146.198686 
L 173.748224 141.874718 
L 249.839134 130.268278 
L 325.930043 123.213384 
" clip-path="url(#p13c5222c67)" style="fill: none; stroke: #d62728; stroke-linecap: square"/>
    <defs>
     <path id="m28e509e12f" d="M 0 3 
C 0.795609 3 1.55874 2.683901 2.12132 2.12132 
C 2.683901 1.55874 3 0.795609 3 0 
C 3 -0.795609 2.683901 -1.55874 2.12132 -2.12132 
C 1.55874 -2.683901 0.795609 -3 0 -3 
C -0.795609 -3 -1.55874 -2.683901 -2.12132 -2.12132 
C -2.683901 -1.55874 -3 -0.795609 -3 0 
C -3 0.795609 -2.683901 1.55874 -2.12132 2.12132 
C -1.55874 2.683901 -0.795609 3 0 3 
z
" style="stroke: #d62728"/>
    </defs>
    <g clip-path="url(#p13c5222c67)">
     <use xlink:href="#m28e509e12f" x="52.00277" y="166.225484" style="fill: #d62728; stroke: #d62728"/>
     <use xlink:href="#m28e509e12f" x="97.657315" y="146.198686" style="fill: #d62728; stroke: #d62728"/>
     <use xlink:href="#m28e509e12f" x="173.748224" y="141.874718" style="fill: #d62728; stroke: #d62728"/>
     <use xlink:href="#m28e509e12f" x="249.839134" y="130.268278" style="fill: #d62728; stroke: #d62728"/>
     <use xlink:href="#m28e509e12f" x="325.930043" y="123.213384" style="fill: #d62728; stroke: #d62728"/>
    </g>
   </g>
   <g id="line2d_28">
    <path d="M 52.00277 161.218785 
L 97.657315 106.372667 
L 173.748224 76.560047 
L 249.839134 55.167785 
L 325.930043 27.630937 
" clip-path="url(#p13c5222c67)" style="fill: none; stroke: #9467bd; stroke-linecap: square"/>
    <defs>
     <path id="m645ad557d1" d="M 0 3 
C 0.795609 3 1.55874 2.683901 2.12132 2.12132 
C 2.683901 1.55874 3 0.795609 3 0 
C 3 -0.795609 2.683901 -1.55874 2.12132 -2.12132 
C 1.55874 -2.683901 0.795609 -3 0 -3 
C -0.795609 -3 -1.55874 -2.683901 -2.12132 -2.12132 
C -2.683901 -1.55874 -3 -0.795609 -3 0 
C -3 0.795609 -2.683901 1.55874 -2.12132 2.12132 
C -1.55874 2.683901 -0.795609 3 0 3 
z
" style="stroke: #9467bd"/>
    </defs>
    <g clip-path="url(#p13c5222c67)">
     <use xlink:href="#m645ad557d1" x="52.00277" y="161.218785" style="fill: #9467bd; stroke: #9467bd"/>
     <use xlink:href="#m645ad557d1" x="97.657315" y="106.372667" style="fill: #9467bd; stroke: #9467bd"/>
     <use xlink:href="#m645ad557d1" x="173.748224" y="76.560047" style="fill: #9467bd; stroke: #9467bd"/>
     <use xlink:href="#m645ad557d1" x="249.839134" y="55.167785" style="fill: #9467bd; stroke: #9467bd"/>
     <use xlink:href="#m645ad557d1" x="325.930043" y="27.630937" style="fill: #9467bd; stroke: #9467bd"/>
    </g>
   </g>
   <g id="patch_3">
    <path d="M 38.306406 202.266937 
L 38.306406 19.314937 
" style="fill: none; stroke: #000000; stroke-width: 0.8; stroke-linejoin: miter; stroke-linecap: square"/>
   </g>
   <g id="patch_4">
    <path d="M 38.306406 202.266938 
L 339.626406 202.266938 
" style="fill: none; stroke: #000000; stroke-width: 0.8; stroke-linejoin: miter; stroke-linecap: square"/>
   </g>
   <g id="text_16">
    <text style="font-weight: 700; font-size: 8.4px; font-family: 'Arial', 'Helvetica', 'DejaVu Sans', sans-serif; text-anchor: start" x="38.306406" y="13.314937" transform="rotate(-0 38.306406 13.314937)">Sample-size sensitivity</text>
   </g>
   <g id="legend_1">
    <g id="LineCollection_6">
     <path d="M 47.806406 28.158688 
L 47.806406 23.158688 
" style="fill: none; stroke: #1f77b4"/>
    </g>
    <g id="line2d_29">
     <g>
      <use xlink:href="#m40ffd93f4a" x="47.806406" y="28.158688" style="fill: #1f77b4; stroke: #1f77b4"/>
     </g>
    </g>
    <g id="line2d_30">
     <g>
      <use xlink:href="#m40ffd93f4a" x="47.806406" y="23.158688" style="fill: #1f77b4; stroke: #1f77b4"/>
     </g>
    </g>
    <g id="line2d_31">
     <path d="M 42.806406 25.658688 
L 52.806406 25.658688 
" style="fill: none; stroke: #1f77b4; stroke-linecap: square"/>
    </g>
    <g id="line2d_32">
     <g>
      <use xlink:href="#m567a933014" x="47.806406" y="25.658688" style="fill: #1f77b4; stroke: #1f77b4"/>
     </g>
    </g>
    <g id="text_17">
     <text style="font-size: 5px; font-family: 'Arial', 'Helvetica', 'DejaVu Sans', sans-serif; text-anchor: start" x="56.806406" y="27.408688" transform="rotate(-0 56.806406 27.408688)">L1 Logistic</text>
    </g>
    <g id="LineCollection_7">
     <path d="M 47.806406 35.289938 
L 47.806406 30.289938 
" style="fill: none; stroke: #ff7f0e"/>
    </g>
    <g id="line2d_33">
     <g>
      <use xlink:href="#meaf573151e" x="47.806406" y="35.289938" style="fill: #ff7f0e; stroke: #ff7f0e"/>
     </g>
    </g>
    <g id="line2d_34">
     <g>
      <use xlink:href="#meaf573151e" x="47.806406" y="30.289938" style="fill: #ff7f0e; stroke: #ff7f0e"/>
     </g>
    </g>
    <g id="line2d_35">
     <path d="M 42.806406 32.789938 
L 52.806406 32.789938 
" style="fill: none; stroke: #ff7f0e; stroke-linecap: square"/>
    </g>
    <g id="line2d_36">
     <g>
      <use xlink:href="#m25184adcfb" x="47.806406" y="32.789938" style="fill: #ff7f0e; stroke: #ff7f0e"/>
     </g>
    </g>
    <g id="text_18">
     <text style="font-size: 5px; font-family: 'Arial', 'Helvetica', 'DejaVu Sans', sans-serif; text-anchor: start" x="56.806406" y="34.539938" transform="rotate(-0 56.806406 34.539938)">Linear SVM</text>
    </g>
    <g id="LineCollection_8">
     <path d="M 47.806406 42.362594 
L 47.806406 37.362594 
" style="fill: none; stroke: #2ca02c"/>
    </g>
    <g id="line2d_37">
     <g>
      <use xlink:href="#m17247f6f5e" x="47.806406" y="42.362594" style="fill: #2ca02c; stroke: #2ca02c"/>
     </g>
    </g>
    <g id="line2d_38">
     <g>
      <use xlink:href="#m17247f6f5e" x="47.806406" y="37.362594" style="fill: #2ca02c; stroke: #2ca02c"/>
     </g>
    </g>
    <g id="line2d_39">
     <path d="M 42.806406 39.862594 
L 52.806406 39.862594 
" style="fill: none; stroke: #2ca02c; stroke-linecap: square"/>
    </g>
    <g id="line2d_40">
     <g>
      <use xlink:href="#m57cb45649e" x="47.806406" y="39.862594" style="fill: #2ca02c; stroke: #2ca02c"/>
     </g>
    </g>
    <g id="text_19">
     <text style="font-size: 5px; font-family: 'Arial', 'Helvetica', 'DejaVu Sans', sans-serif; text-anchor: start" x="56.806406" y="41.612594" transform="rotate(-0 56.806406 41.612594)">Logistic Regression</text>
    </g>
    <g id="LineCollection_9">
     <path d="M 115.436875 28.158688 
L 115.436875 23.158688 
" style="fill: none; stroke: #d62728"/>
    </g>
    <g id="line2d_41">
     <g>
      <use xlink:href="#m5ece7dbf11" x="115.436875" y="28.158688" style="fill: #d62728; stroke: #d62728"/>
     </g>
    </g>
    <g id="line2d_42">
     <g>
      <use xlink:href="#m5ece7dbf11" x="115.436875" y="23.158688" style="fill: #d62728; stroke: #d62728"/>
     </g>
    </g>
    <g id="line2d_43">
     <path d="M 110.436875 25.658688 
L 120.436875 25.658688 
" style="fill: none; stroke: #d62728; stroke-linecap: square"/>
    </g>
    <g id="line2d_44">
     <g>
      <use xlink:href="#m28e509e12f" x="115.436875" y="25.658688" style="fill: #d62728; stroke: #d62728"/>
     </g>
    </g>
    <g id="text_20">
     <text style="font-size: 5px; font-family: 'Arial', 'Helvetica', 'DejaVu Sans', sans-serif; text-anchor: start" x="124.436875" y="27.408688" transform="rotate(-0 124.436875 27.408688)">RBF-SVM</text>
    </g>
    <g id="LineCollection_10">
     <path d="M 115.436875 35.231344 
L 115.436875 30.231344 
" style="fill: none; stroke: #9467bd"/>
    </g>
    <g id="line2d_45">
     <g>
      <use xlink:href="#m78aaa6e985" x="115.436875" y="35.231344" style="fill: #9467bd; stroke: #9467bd"/>
     </g>
    </g>
    <g id="line2d_46">
     <g>
      <use xlink:href="#m78aaa6e985" x="115.436875" y="30.231344" style="fill: #9467bd; stroke: #9467bd"/>
     </g>
    </g>
    <g id="line2d_47">
     <path d="M 110.436875 32.731344 
L 120.436875 32.731344 
" style="fill: none; stroke: #9467bd; stroke-linecap: square"/>
    </g>
    <g id="line2d_48">
     <g>
      <use xlink:href="#m645ad557d1" x="115.436875" y="32.731344" style="fill: #9467bd; stroke: #9467bd"/>
     </g>
    </g>
    <g id="text_21">
     <text style="font-size: 5px; font-family: 'Arial', 'Helvetica', 'DejaVu Sans', sans-serif; text-anchor: start" x="124.436875" y="34.481344" transform="rotate(-0 124.436875 34.481344)">Random Forest</text>
    </g>
   </g>
  </g>
 </g>
 <defs>
  <clipPath id="p13c5222c67">
   <rect x="38.306406" y="19.314938" width="301.32" height="182.952"/>
  </clipPath>
 </defs>
</svg>
